<?xml version="1.0" encoding="UTF-8" standalone="no"?>
<svg width="36px" height="36px" viewBox="0 0 36 36" version="1.1" xmlns="http://www.w3.org/2000/svg" xmlns:xlink="http://www.w3.org/1999/xlink">
    <!-- Generator: Sketch 3.6.1 (26313) - http://www.bohemiancoding.com/sketch -->
    <title>icon/36/owl-brand</title>
    <desc>Created with Sketch.</desc>
    <defs></defs>
    <g id="Page-1" stroke="none" stroke-width="1" fill="none" fill-rule="evenodd">
        <path d="M20.5379779,25.2018032 C19.8287368,25.3110095 19.0972529,25.3419937 18.3526255,25.283073 C18.1301978,25.2658032 17.9108032,25.2378667 17.6929252,25.2053587 C16.9771123,25.1342476 16.2724209,24.9818667 15.5950274,24.7573587 C15.1036643,26.3116444 15.1102361,28.0558984 15.5475087,29.603073 C16.1814277,31.8461206 17.225827,33.7701841 18.9122335,35.3325968 C19.3631551,35.7506286 19.8332864,36.1458032 20.3024067,36.5414857 C21.0864644,37.2038349 22.7106922,38.0485333 22.7111977,38.0490413 C22.732935,38.0602159 22.7839923,38.0485333 22.8476875,38.0251683 C23.6100079,37.315073 24.2985228,36.5435175 24.9041328,35.7206603 C26.6471573,33.2139937 27.6243227,30.1013587 27.4954157,26.7652317 C27.4281819,25.0240254 27.0637037,23.3681524 26.4570827,21.8458667 C24.9526625,23.6226286 22.8674027,24.8426921 20.5379779,25.2018032 Z M20.1254755,37.6904381 C19.5785056,37.2287238 19.030019,36.7680254 18.5037753,36.2804063 C16.5368066,34.4574222 15.3185093,32.2133587 14.5789371,29.5969778 C14.1052672,27.9187556 14.0653313,26.0419302 14.5233302,24.3286603 C13.3121102,23.7541841 12.2388965,22.9216762 11.433607,21.8570413 C10.2719277,20.3210413 9.67592255,18.4284698 9.46309967,16.5328508 C9.46057208,16.5110095 9.45753898,16.4891683 9.45551691,16.467327 C9.44035138,16.3352635 9.42821896,16.2016762 9.41810861,16.0680889 C9.41608654,16.0406603 9.41355895,16.0127238 9.41103136,15.9852952 C9.37766721,15.4854857 9.37918376,14.9765333 9.41962516,14.4614857 C9.45400036,14.0216127 9.51567349,13.5913905 9.60211699,13.170819 C7.71855865,15.7897397 6.59984834,19.0562794 6.59984834,22.5996444 C6.59984834,28.9325968 10.1713297,34.3837714 15.3023327,36.8284698 C17.1034917,37.5426286 18.9445866,37.9896127 20.6496972,38.1816127 C20.7042931,38.1877079 20.7593945,38.1943111 20.8134849,38.1998984 C20.8074187,38.1958349 20.8013525,38.1917714 20.7952863,38.1872 C20.5470772,38.019581 20.3150446,37.8504381 20.1254755,37.6904381 Z M10.3846581,15.9844825 C10.3937575,16.1038476 10.4043733,16.2227048 10.4180223,16.341054 C10.4200444,16.3603556 10.422572,16.3796571 10.424594,16.3994667 C10.6151741,18.092419 11.1469786,19.7828317 12.1848061,21.1547683 C13.4905579,22.8812444 15.5818839,23.9270857 17.7753245,24.1449905 C17.9694433,24.1739429 18.1655841,24.1988317 18.3642525,24.2145778 C19.0295135,24.2674032 19.6826422,24.2394667 20.3160557,24.1419429 C22.6560963,23.7813079 24.7201244,22.4484825 26.0809776,20.5300063 L23.4669465,15.0122921 L26.4414116,10.4154667 C26.4181578,10.3773714 26.3933875,10.3397841 26.3696282,10.3021968 C26.1962356,10.0263873 26.0091942,9.76073651 25.8085037,9.50626032 C25.7675568,9.45495873 25.7276209,9.40314921 25.6856629,9.35286349 C24.2424104,7.61165714 22.1571505,6.44086349 19.7670636,6.25241905 C14.9732408,5.87451429 10.7734011,9.58905397 10.3856692,14.5495619 C10.3497774,15.0092444 10.3482609,15.4638476 10.3785919,15.9103238 C10.3801085,15.9352127 10.3826361,15.9595937 10.3846581,15.9844825 Z M27.3812699,12.5178159 C27.3741926,12.4934349 27.3671154,12.4695619 27.3595326,12.445181 C27.3479057,12.4070857 27.3347622,12.3689905 27.3226298,12.3308952 C27.1942284,11.9352127 27.0400455,11.5507048 26.8610923,11.180419 L24.3314826,15.0778159 L26.5618259,19.7787683 C27.2149546,18.6359111 27.6355452,17.3279746 27.7452425,15.9179429 C27.819048,14.9782603 27.7497921,14.0619429 27.5576955,13.1903238 C27.5071437,12.9627683 27.4479982,12.7387683 27.3812699,12.5178159 Z M20.1881597,8.34359365 C21.9458442,8.23743492 23.4214499,9.42041905 23.6024252,11.0803556 C23.6939238,12.6859429 22.443779,14.2412444 20.6866,14.3474032 C18.9936218,14.4494984 17.3673719,13.2776889 17.2723346,11.6106413 C17.1808359,10.004546 18.4309808,8.44975238 20.1881597,8.34359365 Z M20.1633894,21.1791492 C18.4704111,21.2812444 16.8441612,20.1094349 16.7491239,18.4423873 C16.6576252,16.8362921 17.9077701,15.2814984 19.6649491,15.1753397 C21.4226335,15.069181 22.8982392,16.2521651 23.0792145,17.9121016 C23.1707132,19.5176889 21.9205683,21.0729905 20.1633894,21.1791492 Z M19.7416361,16.1004952 C18.5728795,16.2259556 17.5992528,17.2098286 17.7246211,18.3603048 C17.8454398,19.4691302 18.8726514,20.3839238 20.086399,20.2538921 C21.3001466,20.1238603 22.1696368,19.1496381 22.1039195,17.9935746 C21.9825953,16.8852571 20.9558892,15.9704635 19.7416361,16.1004952 Z M20.6105196,13.4336762 C21.8313445,13.3026286 22.7053843,12.323327 22.6391615,11.1611683 C22.5173318,10.0462476 21.4845594,9.1263746 20.2642401,9.25742222 C19.0889118,9.38339048 18.1097244,10.3723429 18.2355982,11.5299302 C18.357428,12.6443429 19.3902003,13.5642159 20.6105196,13.4336762 Z M16.9958165,13.2233397 L18.0326329,14.5978159 L16.7981591,15.8061968 L15.2441982,14.3854984 L16.9958165,13.2233397 Z" id="brand" fill="#383387"></path>
    </g>
</svg>