<?xml version="1.0" encoding="UTF-8"?>
<svg width="20px" height="20px" viewBox="0 0 20 20" version="1.1" xmlns="http://www.w3.org/2000/svg" xmlns:xlink="http://www.w3.org/1999/xlink">
    <!-- Generator: Sketch 39.1 (31720) - http://www.bohemiancoding.com/sketch -->
    <title>icon/20/circle-and</title>
    <desc>Created with Sketch.</desc>
    <defs></defs>
    <g id="Output-temp" stroke="none" stroke-width="1" fill="none" fill-rule="evenodd">
        <g id="temp" transform="translate(-418.000000, -256.000000)" fill="#B8BDBF">
            <path d="M430.170223,269.059296 C429.566696,270.010878 428.503985,270.6425 427.29375,270.6425 C425.413911,270.6425 423.89,269.11859 423.89,267.23875 C423.89,265.913976 424.646836,264.765971 425.751718,264.203523 C425.497059,263.819126 425.34875,263.358133 425.34875,262.8625 C425.34875,261.519758 426.437258,260.43125 427.78,260.43125 C429.122743,260.43125 430.21125,261.519758 430.21125,262.8625 C430.21125,263.551687 429.924489,264.173897 429.463775,264.616323 C429.895681,264.974121 430.23774,265.436575 430.451082,265.964814 L431.0865,265.48825 C431.516178,265.165992 432.125742,265.253073 432.448,265.68275 C432.770258,266.112428 432.683178,266.721992 432.2535,267.04425 L431.483399,267.621826 L432.357662,268.496089 C432.737447,268.875874 432.737447,269.491627 432.357662,269.871412 C431.977877,270.251197 431.362124,270.251197 430.982339,269.871412 L430.170223,269.059296 Z M427.7796,258 C423.483152,258 420,261.483774 420,265.78 C420,270.077028 423.483152,273.56 427.7796,273.56 C432.076849,273.56 435.56,270.077028 435.56,265.78 C435.56,261.483774 432.076849,258 427.7796,258 Z M426.8075,262.8625 C426.8075,262.325403 427.242903,261.89 427.78,261.89 C428.317097,261.89 428.7525,262.325403 428.7525,262.8625 C428.7525,263.399597 428.317097,263.835 427.78,263.835 C427.242903,263.835 426.8075,263.399597 426.8075,262.8625 Z M425.835,267.23875 C425.835,266.433105 426.488105,265.78 427.29375,265.78 C428.099396,265.78 428.7525,266.433105 428.7525,267.23875 C428.7525,268.044396 428.099396,268.6975 427.29375,268.6975 C426.488105,268.6975 425.835,268.044396 425.835,267.23875 Z" id="icon/circle-and"></path>
        </g>
    </g>
</svg>