<?xml version="1.0" encoding="UTF-8"?>
<svg width="20px" height="20px" viewBox="0 0 20 20" version="1.1" xmlns="http://www.w3.org/2000/svg" xmlns:xlink="http://www.w3.org/1999/xlink">
    <!-- Generator: Sketch 39.1 (31720) - http://www.bohemiancoding.com/sketch -->
    <title>icon/20/circle-add</title>
    <desc>Created with Sketch.</desc>
    <defs></defs>
    <g id="Output-temp" stroke="none" stroke-width="1" fill="none" fill-rule="evenodd">
        <g id="temp" transform="translate(-366.000000, -256.000000)" fill="#B8BDBF">
            <path d="M376.75,264.805556 L376.75,262.858224 C376.75,262.329341 376.314721,261.888889 375.777778,261.888889 C375.237091,261.888889 374.805556,262.322875 374.805556,262.858224 L374.805556,264.805556 L372.858224,264.805556 C372.329341,264.805556 371.888889,265.240834 371.888889,265.777778 C371.888889,266.318465 372.322875,266.75 372.858224,266.75 L374.805556,266.75 L374.805556,268.697332 C374.805556,269.226215 375.240834,269.666667 375.777778,269.666667 C376.318465,269.666667 376.75,269.232681 376.75,268.697332 L376.75,266.75 L378.697332,266.75 C379.226215,266.75 379.666667,266.314721 379.666667,265.777778 C379.666667,265.237091 379.232681,264.805556 378.697332,264.805556 L376.75,264.805556 Z M375.777377,258 C371.482157,258 368,261.482778 368,265.777778 C368,270.073578 371.482157,273.555556 375.777377,273.555556 C380.073399,273.555556 383.555556,270.073578 383.555556,265.777778 C383.555556,261.482778 380.073399,258 375.777377,258 Z" id="icon/circle-add"></path>
        </g>
    </g>
</svg>