<?xml version="1.0" encoding="UTF-8"?>
<svg width="20px" height="20px" viewBox="0 0 20 20" version="1.1" xmlns="http://www.w3.org/2000/svg" xmlns:xlink="http://www.w3.org/1999/xlink">
    <!-- Generator: Sketch 39.1 (31720) - http://www.bohemiancoding.com/sketch -->
    <title>icon/20/circle-prompt</title>
    <desc>Created with Sketch.</desc>
    <defs></defs>
    <g id="Output-temp" stroke="none" stroke-width="1" fill="none" fill-rule="evenodd">
        <g id="temp" transform="translate(-262.000000, -300.000000)" fill="#B8BDBF">
            <path d="M271.7796,302 C267.483152,302 264,305.483774 264,309.78 C264,314.077028 267.483152,317.56 271.7796,317.56 C276.076849,317.56 279.56,314.077028 279.56,309.78 C279.56,305.483774 276.076849,302 271.7796,302 L271.7796,302 Z M274.344765,306.196418 C274.108192,305.801945 273.774936,305.490109 273.343225,305.261689 C272.911514,305.033269 272.413577,304.9175 271.84906,304.9175 C271.243107,304.9175 270.711879,305.054708 270.256795,305.328734 C269.80171,305.60276 269.456058,305.948119 269.218068,306.367148 C268.980078,306.784229 268.8625,307.197022 268.8625,307.603579 C268.8625,307.799646 268.937226,307.98246 269.086678,308.151631 C269.235776,308.320412 269.419935,308.405777 269.638446,308.405777 C270.006409,308.405777 270.258211,308.163714 270.391018,307.679589 C270.530908,307.216512 270.702317,306.866476 270.904184,306.629091 C271.106404,306.391316 271.421599,306.272818 271.84906,306.272818 C272.215607,306.272818 272.51451,306.391316 272.745771,306.625972 C272.976678,306.861798 273.09284,307.151027 273.09284,307.493657 C273.09284,307.669064 273.055654,307.831999 272.979511,307.9809 C272.903369,308.131751 272.810581,308.2674 272.698669,308.389016 C272.58782,308.511022 272.407911,308.692277 272.158942,308.931221 C271.875621,309.205247 271.650027,309.442632 271.482513,309.642208 C271.315353,309.840224 271.18113,310.071762 271.079843,310.334874 C270.97891,310.598375 270.927912,310.910601 270.927912,311.269992 C270.927912,311.556102 270.996971,311.772438 271.135444,311.918612 C271.273564,312.064785 271.44391,312.136117 271.645777,312.136117 C272.034635,312.136117 272.265542,311.913934 272.340268,311.469567 C272.38312,311.259078 272.414994,311.111735 272.435889,311.029489 C272.457846,310.945683 272.486887,310.861877 272.526906,310.778071 C272.565862,310.694265 272.62536,310.603053 272.703981,310.502486 C272.784374,310.401918 272.890973,310.28459 273.022364,310.15245 C273.500822,309.681967 273.833016,309.346743 274.016821,309.147558 C274.202396,308.947982 274.361411,308.711766 274.497051,308.43774 C274.631274,308.163714 274.6975,307.844082 274.6975,307.481573 C274.6975,307.018886 274.579922,306.590891 274.344765,306.196418 M272.329289,312.997954 C272.495386,313.180768 272.579674,313.409188 272.579674,313.678927 C272.579674,313.978679 272.492553,314.213336 272.316894,314.385236 C272.142297,314.555966 271.939014,314.6425 271.709524,314.6425 C271.472951,314.6425 271.265418,314.557135 271.088342,314.388354 C270.911267,314.219183 270.822729,313.981797 270.822729,313.678927 C270.822729,313.409188 270.908433,313.180768 271.079843,312.997954 C271.251606,312.813971 271.460556,312.72081 271.709524,312.72081 C271.954243,312.72081 272.161776,312.813971 272.329289,312.997954" id="icom/circle-prompt"></path>
        </g>
    </g>
</svg>