<?xml version="1.0" encoding="UTF-8"?>
<svg width="20px" height="20px" viewBox="0 0 20 20" version="1.1" xmlns="http://www.w3.org/2000/svg" xmlns:xlink="http://www.w3.org/1999/xlink">
    <!-- Generator: Sketch 39.1 (31720) - http://www.bohemiancoding.com/sketch -->
    <title>icon/20/circle-phone</title>
    <desc>Created with Sketch.</desc>
    <defs></defs>
    <g id="Output-temp" stroke="none" stroke-width="1" fill="none" fill-rule="evenodd">
        <g id="temp" transform="translate(-522.000000, -256.000000)" fill="#B8BDBF">
            <path d="M531.7796,258 C527.483152,258 524,261.483774 524,265.78 C524,270.077028 527.483152,273.56 531.7796,273.56 C536.076849,273.56 539.56,270.077028 539.56,265.78 C539.56,261.483774 536.076849,258 531.7796,258 L531.7796,258 Z M531.80572,267.877115 L533.138689,267.107524 L535.304521,268.024511 L534.620909,270.575788 C533.096282,270.393991 531.650912,269.711275 530.529645,268.613857 C530.083016,268.178141 529.687331,267.6805 529.36354,267.119678 C529.039749,266.558855 528.806622,265.967362 528.652596,265.362712 C528.258145,263.83483 528.394273,262.249872 528.999145,260.838608 L531.550422,261.52222 L531.26164,263.856379 L529.92867,264.62597 C530.045493,265.241263 530.254236,265.846834 530.58272,266.415784 C530.911203,266.984734 531.331271,267.468297 531.80572,267.877115 L531.80572,267.877115 Z" id="icon/circle-phone"></path>
        </g>
    </g>
</svg>