<?xml version="1.0" encoding="UTF-8"?>
<svg width="20px" height="20px" viewBox="0 0 20 20" version="1.1" xmlns="http://www.w3.org/2000/svg" xmlns:xlink="http://www.w3.org/1999/xlink">
    <!-- Generator: Sketch 39.1 (31720) - http://www.bohemiancoding.com/sketch -->
    <title>icon/20/circle-exclamation</title>
    <desc>Created with Sketch.</desc>
    <defs></defs>
    <g id="Output-temp" stroke="none" stroke-width="1" fill="none" fill-rule="evenodd">
        <g id="temp" transform="translate(-470.000000, -256.000000)" fill="#B8BDBF">
            <path d="M479.777778,258 C475.484444,258 472,261.484444 472,265.777778 C472,270.071111 475.484444,273.555556 479.777778,273.555556 C484.071111,273.555556 487.555556,270.071111 487.555556,265.777778 C487.555556,261.484444 484.071111,258 479.777778,258 L479.777778,258 Z M480.888889,271.333333 L478.666667,271.333333 L478.666667,264.666667 L480.888889,264.666667 L480.888889,271.333333 L480.888889,271.333333 Z M480.888889,263.555556 L478.666667,263.555556 L478.666667,261.333333 L480.888889,261.333333 L480.888889,263.555556 L480.888889,263.555556 Z" id="path" transform="translate(479.777778, 265.777778) scale(1, -1) translate(-479.777778, -265.777778) "></path>
        </g>
    </g>
</svg>