<?xml version="1.0" encoding="UTF-8"?>
<svg width="20px" height="20px" viewBox="0 0 20 20" version="1.1" xmlns="http://www.w3.org/2000/svg" xmlns:xlink="http://www.w3.org/1999/xlink">
    <!-- Generator: Sketch 39.1 (31720) - http://www.bohemiancoding.com/sketch -->
    <title>icon/20/circle-restore</title>
    <desc>Created with Sketch.</desc>
    <defs></defs>
    <g id="Output-temp" stroke="none" stroke-width="1" fill="none" fill-rule="evenodd">
        <g id="temp" transform="translate(-678.000000, -256.000000)" fill="#B8BDBF">
            <path d="M688,258.222222 C683.704444,258.222222 680.222222,261.704444 680.222222,266 C680.222222,270.295556 683.704444,273.777778 688,273.777778 C692.295556,273.777778 695.777778,270.295556 695.777778,266 C695.777778,261.704444 692.295556,258.222222 688,258.222222 Z M688,260.922111 C685.545556,260.922111 683.555556,262.912111 683.555556,265.366556 L685.333333,265.366556 C685.333333,263.894333 686.527778,262.699889 688,262.699889 C689.472222,262.699889 690.666667,263.894333 690.666667,265.366556 C690.666667,266.838778 689.472222,268.033222 688,268.033222 L688,266.762111 L685.392222,268.898778 L688,271.077667 L688,269.811 C690.454444,269.811 692.444444,267.821 692.444444,265.366556 C692.444444,262.912111 690.454444,260.922111 688,260.922111 Z" id="path"></path>
        </g>
    </g>
</svg>