<?xml version="1.0" encoding="UTF-8"?>
<svg width="20px" height="20px" viewBox="0 0 20 20" version="1.1" xmlns="http://www.w3.org/2000/svg" xmlns:xlink="http://www.w3.org/1999/xlink">
    <!-- Generator: Sketch 39.1 (31720) - http://www.bohemiancoding.com/sketch -->
    <title>icon/20/circle-success</title>
    <desc>Created with Sketch.</desc>
    <defs></defs>
    <g id="Output-temp" stroke="none" stroke-width="1" fill="none" fill-rule="evenodd">
        <g id="temp" transform="translate(-730.000000, -256.000000)" fill="#B8BDBF">
            <path d="M739.779943,273.56 C735.490036,273.56 732,270.068723 732,265.779257 C732,261.489677 735.490036,258 739.779943,258 C744.069965,258 747.56,261.489677 747.56,265.779257 C747.56,270.068723 744.069965,273.56 739.779943,273.56 L739.779943,273.56 Z M739.779943,258.76196 C735.910088,258.76196 732.761924,261.909686 732.761924,265.779257 C732.761924,269.648714 735.910088,272.796555 739.779943,272.796555 C743.649912,272.796555 746.797962,269.648714 746.797962,265.779257 C746.797962,261.909686 743.649912,258.76196 739.779943,258.76196 L739.779943,258.76196 Z M736.670183,266.762136 C736.19801,266.290011 736.19801,265.521766 736.670183,265.049641 C737.152415,264.567459 737.93857,264.581288 738.394741,265.038098 L739.125118,265.768743 L741.619944,263.275088 C742.077944,262.817135 742.875644,262.81782 743.332158,263.275773 C743.834621,263.777499 743.803303,264.53923 743.343702,264.998668 L739.855838,268.486174 C739.451674,268.890297 738.798563,268.890297 738.394399,268.486174 L736.670183,266.762136 Z M737.220881,265.57651 C737.033657,265.7636 737.033657,266.048292 737.208879,266.223495 L738.933095,267.947419 C739.038708,268.053022 739.211529,268.053022 739.317143,267.947419 L742.805007,264.460028 C742.981257,264.282881 742.979314,264.000018 742.805007,263.825614 C742.61184,263.632238 742.328719,263.644124 742.15864,263.813728 L739.394524,266.576875 C739.245705,266.725564 739.004532,266.725564 738.855713,266.57676 L737.855931,265.576738 C737.679681,265.400506 737.395645,265.401649 737.22088,265.576395 L737.220881,265.57651 Z" id="path"></path>
        </g>
    </g>
</svg>