<?xml version="1.0" encoding="UTF-8"?>
<svg width="20px" height="20px" viewBox="0 0 20 20" version="1.1" xmlns="http://www.w3.org/2000/svg" xmlns:xlink="http://www.w3.org/1999/xlink">
    <!-- Generator: Sketch 39.1 (31720) - http://www.bohemiancoding.com/sketch -->
    <title>icon/20/circle-open-new</title>
    <desc>Created with Sketch.</desc>
    <defs></defs>
    <g id="Output-temp" stroke="none" stroke-width="1" fill="none" fill-rule="evenodd">
        <g id="temp" transform="translate(-574.000000, -256.000000)" fill="#B8BDBF">
            <path d="M583.7796,258 C579.483152,258 576,261.483774 576,265.78 C576,270.077028 579.483152,273.56 583.7796,273.56 C588.076849,273.56 591.56,270.077028 591.56,265.78 C591.56,261.483774 588.076849,258 583.7796,258 Z M584.7525,260.9175 L584.7525,262.37625 L586.21125,262.37625 L581.34875,267.23875 L582.32125,268.21125 L587.18375,263.34875 L587.18375,264.8075 L588.655796,264.8075 L588.655796,260.9175 L584.7525,260.9175 Z M587.18375,269.18375 L580.37625,269.18375 L580.37625,262.350549 L583.78,262.350549 L583.78,260.9175 L579.998056,260.9175 C579.398347,260.9175 578.9175,261.40375 578.9175,261.998056 L578.9175,269.561945 C578.9175,270.15625 579.398347,270.6425 579.998056,270.6425 L587.561945,270.6425 C588.15625,270.6425 588.6425,270.15625 588.6425,269.561945 L588.6425,265.78 L587.18375,265.78 L587.18375,269.18375 Z" id="icon/circle-open-new"></path>
        </g>
    </g>
</svg>