<?xml version="1.0" encoding="UTF-8"?>
<svg width="20px" height="20px" viewBox="0 0 20 20" version="1.1" xmlns="http://www.w3.org/2000/svg" xmlns:xlink="http://www.w3.org/1999/xlink">
    <!-- Generator: Sketch 39.1 (31720) - http://www.bohemiancoding.com/sketch -->
    <title>icon/20/circle-error</title>
    <desc>Created with Sketch.</desc>
    <defs></defs>
    <g id="Output-temp" stroke="none" stroke-width="1" fill="none" fill-rule="evenodd">
        <g id="temp" transform="translate(-782.000000, -256.000000)" fill="#B8BDBF">
            <path d="M791.780057,273.556343 C787.490036,273.556343 784,270.069965 784,265.780057 C784,261.490036 787.490036,258 791.780057,258 C796.070079,258 799.56,261.490036 799.56,265.780057 C799.56,270.069965 796.070079,273.556343 791.780057,273.556343 L791.780057,273.556343 Z M791.780057,258.762038 C787.910088,258.762038 784.762038,261.910088 784.762038,265.780058 C784.762038,269.649912 787.910088,272.798077 791.780057,272.798077 C795.649912,272.798077 798.798077,269.649912 798.798077,265.780058 C798.798077,261.910088 795.649912,258.762038 791.780057,258.762038 L791.780057,258.762038 Z M793.755161,268.822609 C793.471697,268.822609 793.20595,268.712081 793.00581,268.511942 L791.778686,267.284817 L790.551675,268.511942 C790.151282,268.91222 789.452567,268.912563 789.052288,268.511485 C788.842433,268.30163 788.732248,268.035654 788.732248,267.752532 C788.732248,267.469411 788.842433,267.203321 789.042572,267.003182 L790.269697,265.776057 L789.042572,264.549047 C788.629607,264.135281 788.629607,263.462511 789.043372,263.049202 C789.463082,262.630178 790.151397,262.639894 790.551675,263.040173 L791.7788,264.266954 L793.00581,263.040173 C793.406203,262.639894 794.103433,262.639437 794.505312,263.03983 C794.927993,263.463197 794.927993,264.135509 794.514913,264.548932 L793.287903,265.775943 L794.514913,267.003068 C794.715167,267.20355 794.825238,267.46964 794.825238,267.752761 C794.825238,268.036225 794.714367,268.302316 794.514227,268.502455 C794.304373,268.71231 794.038739,268.822495 793.755161,268.822495 L793.755161,268.822609 Z M792.522664,266.087867 C792.351786,265.916875 792.351557,265.639811 792.522207,265.46859 L793.976217,264.010122 C794.092232,263.893993 794.092232,263.705055 793.976217,263.588927 C793.843744,263.456453 793.657663,263.465826 793.544621,263.578868 L792.088667,265.034593 C791.917446,265.2057 791.64004,265.2057 791.468933,265.034593 L790.012979,263.578868 C789.899823,263.465826 789.703455,263.466168 789.591784,263.578525 C789.465254,263.704713 789.465254,263.894108 789.581383,264.010122 L791.037565,265.466075 C791.208786,265.637297 791.208786,265.914817 791.037565,266.085924 L789.581383,267.541878 C789.465254,267.658806 789.46514,267.846144 789.581383,267.963073 C789.713856,268.095547 789.899823,268.085488 790.012979,267.973131 L791.46939,266.521064 C791.640383,266.350529 791.917103,266.350643 792.088096,266.521064 L793.544735,267.973131 C793.657778,268.086174 793.854259,268.085831 793.965931,267.973474 C794.03211,267.906837 794.063314,267.832085 794.063314,267.752418 C794.063314,267.672865 794.03211,267.597999 793.976332,267.541877 L792.522664,266.087867 Z" id="path"></path>
        </g>
    </g>
</svg>