<?xml version="1.0" encoding="UTF-8"?>
<svg width="20px" height="20px" viewBox="0 0 20 20" version="1.1" xmlns="http://www.w3.org/2000/svg" xmlns:xlink="http://www.w3.org/1999/xlink">
    <!-- Generator: Sketch 39.1 (31720) - http://www.bohemiancoding.com/sketch -->
    <title>icon/20/clipboard</title>
    <desc>Created with Sketch.</desc>
    <defs></defs>
    <g id="Output-temp" stroke="none" stroke-width="1" fill="none" fill-rule="evenodd">
        <g id="temp" transform="translate(-158.000000, -256.000000)" fill="#B8BDBF">
            <path d="M170.83025,260.485448 C170.242716,260.340712 169.833569,259.871896 169.833569,259.288235 L169.833569,258.801326 C169.833569,257.80627 168.994001,257 167.959679,257 L167.922037,257 C166.886896,257 166.048965,257.80627 166.048965,258.801326 L166.048965,259.292954 C166.048965,259.872682 165.642273,260.340712 165.05883,260.487808 C164.298636,260.677379 163.738105,261.382178 163.738105,262.172716 L163.738105,262.194741 C163.738105,262.488931 163.986048,262.727273 164.29209,262.727273 L171.605174,262.727273 C171.911215,262.727273 172.159158,262.488931 172.159158,262.194741 L172.159158,262.172716 C172.159158,261.379818 171.594536,260.673446 170.83025,260.485448 Z M170.105263,270.091421 C170.105263,270.543291 169.754468,270.909091 169.32015,270.909091 L164.994657,270.909091 C164.562304,270.909091 164.210526,270.543291 164.210526,270.091421 C164.210526,269.639551 164.562304,269.272727 164.994657,269.272727 L169.32015,269.272727 C169.754468,269.272727 170.105263,269.639551 170.105263,270.091421 Z M171.789474,265.182331 C171.789474,265.6342 171.489963,266 171.121014,266 L164.87815,266 C164.510037,266 164.210526,265.6342 164.210526,265.182331 C164.210526,264.730461 164.510037,264.363636 164.87815,264.363636 L171.121014,264.363636 C171.489963,264.363636 171.789474,264.730461 171.789474,265.182331 Z M171.789474,267.636364 C171.789474,268.087951 171.489963,268.454545 171.121014,268.454545 L164.87815,268.454545 C164.510037,268.454545 164.210526,268.087951 164.210526,267.636364 C164.210526,267.184776 164.510037,266.818182 164.87815,266.818182 L171.121014,266.818182 C171.489963,266.818182 171.789474,267.184776 171.789474,267.636364 Z M171.43577,257.818182 L171.43577,258.658371 C171.43577,259.064176 171.792033,259.393229 172.23051,259.393229 L173.758108,259.393229 C174.051605,259.393229 174.290292,259.612871 174.290292,259.884768 L174.290292,272.935046 C174.290292,273.206944 174.051605,273.426585 173.758108,273.426585 L162.242776,273.426585 C161.949279,273.426585 161.711476,273.206944 161.711476,272.935046 L161.711476,259.884768 C161.711476,259.612871 161.949279,259.393229 162.242776,259.393229 L163.770374,259.393229 C164.209735,259.393229 164.565998,259.064176 164.565998,258.658371 L164.565998,257.818182 L161.222609,257.818182 C160.547213,257.818182 160,258.323601 160,258.947415 L160,273.870767 C160,274.49458 160.547213,275 161.222609,275 L174.777391,275 C175.452787,275 176,274.49458 176,273.870767 L176,258.947415 C176,258.323601 175.452787,257.818182 174.777391,257.818182 L171.43577,257.818182 Z" id="icon/clipboard"></path>
        </g>
    </g>
</svg>