<?xml version="1.0" encoding="UTF-8"?>
<svg width="20px" height="20px" viewBox="0 0 20 20" version="1.1" xmlns="http://www.w3.org/2000/svg" xmlns:xlink="http://www.w3.org/1999/xlink">
    <!-- Generator: Sketch 39.1 (31720) - http://www.bohemiancoding.com/sketch -->
    <title>icon/20/clone</title>
    <desc>Created with Sketch.</desc>
    <defs></defs>
    <g id="Output-temp" stroke="none" stroke-width="1" fill="none" fill-rule="evenodd">
        <g id="temp" transform="translate(-782.000000, -212.000000)" fill="#B8BDBF">
            <path d="M797.444444,216.285714 L788.888889,216.285714 C788.033333,216.285714 787.333333,216.971429 787.333333,217.809524 L787.333333,228.476191 C787.333333,229.314286 788.033333,230 788.888889,230 L797.444444,230 C798.3,230 799,229.314286 799,228.476191 L799,217.809524 C799,216.971429 798.3,216.285714 797.444444,216.285714 L797.444444,216.285714 Z M788.5,217.428571 L797.833333,217.428571 L797.833333,228.857143 L788.5,228.857143 L788.5,217.428571 L788.5,217.428571 Z M786.206432,227.675332 C785.517504,227.519046 785,226.911088 785,226.190476 L785,215.52381 C785,214.685714 785.7,214 786.555556,214 L795.111111,214 C795.846736,214 796.467359,214.506943 796.626901,215.181811 C796.514583,215.156332 796.397709,215.142857 796.277778,215.142857 L791.611111,215.142857 L786.166667,215.142857 L786.166667,221.619048 L786.166667,227.333333 C786.166667,227.450817 786.180422,227.565306 786.206432,227.675332 L786.206432,227.675332 Z" id="icon/clone"></path>
        </g>
    </g>
</svg>