<?xml version="1.0" encoding="UTF-8"?>
<svg width="20px" height="20px" viewBox="0 0 20 20" version="1.1" xmlns="http://www.w3.org/2000/svg" xmlns:xlink="http://www.w3.org/1999/xlink">
    <!-- Generator: Sketch 39.1 (31720) - http://www.bohemiancoding.com/sketch -->
    <title>icon/20/disable</title>
    <desc>Created with Sketch.</desc>
    <defs></defs>
    <g id="Output-temp" stroke="none" stroke-width="1" fill="none" fill-rule="evenodd">
        <g id="temp" transform="translate(-626.000000, -256.000000)" fill="#B8BDBF">
            <path d="M641.410678,264.013964 C641.344683,264.005089 641.232466,263.96426 641.232466,263.868639 L641.232466,262.211361 C641.232466,259.42 638.954273,257.083195 636.153803,257.002367 L635.992894,257 C633.103565,257 630.753321,259.250888 630.753321,262.017633 L630.753321,263.86639 C630.753321,263.963077 630.639869,264.00355 630.571896,264.011953 C629.675894,264.127929 629,264.868757 629,265.735503 L629,273.263787 C629,274.222959 629.814682,275 630.81598,275 L641.18402,275 C642.185318,275 643,274.222959 643,273.263787 L643,265.735503 C643,264.877278 642.316937,264.13716 641.410554,264.013965 L641.410678,264.013964 Z M636.128839,257.791243 C638.488599,257.859053 640.408392,259.842248 640.408392,262.211361 L640.408392,264.008521 L638.88939,264.008521 L638.88939,262.105444 C638.88939,260.573018 637.654267,259.264024 636.135636,259.187692 L635.980288,259.183905 C634.375888,259.183905 633.070444,260.433964 633.070444,261.970296 L633.070444,264.008521 L631.577148,264.008521 L631.577148,262.017633 C631.577148,259.686272 633.557993,257.788994 635.99277,257.788994 L636.128839,257.791243 Z M633.894395,261.970296 C633.894395,260.868876 634.830068,259.972781 635.980288,259.972781 L636.092504,259.975858 C637.180313,260.030177 638.065315,260.985562 638.065315,262.105444 L638.065315,263.805562 C638.065315,263.910651 637.975592,263.996568 637.865723,263.996568 L634.093864,263.996568 C633.983996,263.996568 633.894272,263.910651 633.894272,263.805562 L633.894395,261.970296 Z M642.176049,273.263787 C642.176049,273.787692 641.731014,274.214083 641.183897,274.214083 L630.815856,274.214083 C630.268739,274.214083 629.823828,273.787692 629.823828,273.263787 L629.823828,265.735503 C629.823828,265.265917 630.187666,264.865562 630.670148,264.797515 L641.302293,264.797515 C641.80084,264.868757 642.176049,265.270296 642.176049,265.735503 L642.176049,273.263787 Z" id="icon/disable"></path>
        </g>
    </g>
</svg>