<?xml version="1.0" encoding="UTF-8"?>
<svg width="20px" height="20px" viewBox="0 0 20 20" version="1.1" xmlns="http://www.w3.org/2000/svg" xmlns:xlink="http://www.w3.org/1999/xlink">
    <!-- Generator: Sketch 39.1 (31720) - http://www.bohemiancoding.com/sketch -->
    <title>icon/20/eye</title>
    <desc>Created with Sketch.</desc>
    <defs></defs>
    <g id="Output-temp" stroke="none" stroke-width="1" fill="none" fill-rule="evenodd">
        <g id="temp" transform="translate(-54.000000, -256.000000)" fill="#B8BDBF">
            <path d="M71.7616647,265.239744 C70.7805661,263.840426 68.2650133,261 64.0074154,261 C59.7656843,261 57.230298,263.847392 56.2419271,265.244619 C55.9239295,265.694574 55.9186405,266.311695 56.2306881,266.765829 C57.1932754,268.167235 59.6751112,271 64.0074154,271 C68.285508,271 70.7891606,268.163056 71.7643092,266.763042 C72.0796623,266.310302 72.0783401,265.691091 71.7616647,265.239744 L71.7616647,265.239744 Z M64.0008042,269.433517 C62.2005808,269.433517 60.741494,267.896288 60.741494,266.000348 C60.741494,264.103712 62.2005808,262.566483 64.0008042,262.566483 C65.8003666,262.566483 67.2594533,264.103712 67.2594533,266.000348 C67.2594533,267.896288 65.8003666,269.433517 64.0008042,269.433517 L64.0008042,269.433517 Z M65.7600384,266.000348 C65.7600384,267.023543 64.9719861,267.8538 64.0008042,267.8538 C63.0289612,267.8538 62.2415701,267.023543 62.2415701,266.000348 C62.2415701,264.976457 63.0289612,264.146897 64.0008042,264.146897 C64.9719861,264.146897 65.7600384,264.976457 65.7600384,266.000348 L65.7600384,266.000348 Z" id="icon/eye"></path>
        </g>
    </g>
</svg>