<?xml version="1.0" encoding="UTF-8"?>
<svg width="20px" height="20px" viewBox="0 0 20 20" version="1.1" xmlns="http://www.w3.org/2000/svg" xmlns:xlink="http://www.w3.org/1999/xlink">
    <!-- Generator: Sketch 39.1 (31720) - http://www.bohemiancoding.com/sketch -->
    <title>icon/20/grid-9</title>
    <desc>Created with Sketch.</desc>
    <defs></defs>
    <g id="Output-temp" stroke="none" stroke-width="1" fill="none" fill-rule="evenodd">
        <g id="temp" transform="translate(-158.000000, -212.000000)" fill="#B8BDBF">
            <path d="M159,225.810544 L164.294118,225.810544 L164.294118,231 L159,231 L159,225.810544 L159,225.810544 Z M159,219.405272 L164.294118,219.405272 L164.294118,224.594728 L159,224.594728 L159,219.405272 L159,219.405272 Z M159,213 L164.294118,213 L164.294118,218.189456 L159,218.189456 L159,213 L159,213 Z M165.352941,225.810544 L170.647059,225.810544 L170.647059,231 L165.352941,231 L165.352941,225.810544 L165.352941,225.810544 Z M165.352941,219.405272 L170.647059,219.405272 L170.647059,224.594728 L165.352941,224.594728 L165.352941,219.405272 L165.352941,219.405272 Z M165.352941,213 L170.647059,213 L170.647059,218.189456 L165.352941,218.189456 L165.352941,213 L165.352941,213 Z M171.705882,225.810544 L177,225.810544 L177,231 L171.705882,231 L171.705882,225.810544 L171.705882,225.810544 Z M171.705882,219.405272 L177,219.405272 L177,224.594728 L171.705882,224.594728 L171.705882,219.405272 L171.705882,219.405272 Z M171.705882,213 L177,213 L177,218.189456 L171.705882,218.189456 L171.705882,213 L171.705882,213 Z" id="icon/grid-9"></path>
        </g>
    </g>
</svg>