<?xml version="1.0" encoding="UTF-8"?>
<svg width="20px" height="20px" viewBox="0 0 20 20" version="1.1" xmlns="http://www.w3.org/2000/svg" xmlns:xlink="http://www.w3.org/1999/xlink">
    <!-- Generator: Sketch 39.1 (31720) - http://www.bohemiancoding.com/sketch -->
    <title>icon/20/grid-16</title>
    <desc>Created with Sketch.</desc>
    <defs></defs>
    <g id="Output-temp" stroke="none" stroke-width="1" fill="none" fill-rule="evenodd">
        <g id="temp" transform="translate(-210.000000, -212.000000)" fill="#B8BDBF">
            <path d="M211,222.411765 L214.882353,222.411765 L214.882353,226.294118 L211,226.294118 L211,222.411765 L211,222.411765 Z M215.705882,222.411765 L219.588235,222.411765 L219.588235,226.294118 L215.705882,226.294118 L215.705882,222.411765 L215.705882,222.411765 Z M220.411765,222.411765 L224.294118,222.411765 L224.294118,226.294118 L220.411765,226.294118 L220.411765,222.411765 L220.411765,222.411765 Z M225.117647,222.411765 L229,222.411765 L229,226.294118 L225.117647,226.294118 L225.117647,222.411765 L225.117647,222.411765 Z M211,227.117647 L214.882353,227.117647 L214.882353,231 L211,231 L211,227.117647 L211,227.117647 Z M215.705882,227.117647 L219.588235,227.117647 L219.588235,231 L215.705882,231 L215.705882,227.117647 L215.705882,227.117647 Z M220.411765,227.117647 L224.294118,227.117647 L224.294118,231 L220.411765,231 L220.411765,227.117647 L220.411765,227.117647 Z M225.117647,227.117647 L229,227.117647 L229,231 L225.117647,231 L225.117647,227.117647 L225.117647,227.117647 Z M211,217.705882 L214.882353,217.705882 L214.882353,221.588235 L211,221.588235 L211,217.705882 L211,217.705882 Z M215.705882,217.705882 L219.588235,217.705882 L219.588235,221.588235 L215.705882,221.588235 L215.705882,217.705882 L215.705882,217.705882 Z M220.411765,217.705882 L224.294118,217.705882 L224.294118,221.588235 L220.411765,221.588235 L220.411765,217.705882 L220.411765,217.705882 Z M225.117647,217.705882 L229,217.705882 L229,221.588235 L225.117647,221.588235 L225.117647,217.705882 L225.117647,217.705882 Z M211,213 L214.882353,213 L214.882353,216.882353 L211,216.882353 L211,213 L211,213 Z M215.705882,213 L219.588235,213 L219.588235,216.882353 L215.705882,216.882353 L215.705882,213 L215.705882,213 Z M220.411765,213 L224.294118,213 L224.294118,216.882353 L220.411765,216.882353 L220.411765,213 L220.411765,213 Z M225.117647,213 L229,213 L229,216.882353 L225.117647,216.882353 L225.117647,213 L225.117647,213 Z" id="icon/grid-16"></path>
        </g>
    </g>
</svg>