<?xml version="1.0" encoding="UTF-8"?>
<svg width="20px" height="20px" viewBox="0 0 20 20" version="1.1" xmlns="http://www.w3.org/2000/svg" xmlns:xlink="http://www.w3.org/1999/xlink">
    <!-- Generator: Sketch 39.1 (31720) - http://www.bohemiancoding.com/sketch -->
    <title>icon/20/legend</title>
    <desc>Created with Sketch.</desc>
    <defs></defs>
    <g id="Output-temp" stroke="none" stroke-width="1" fill="none" fill-rule="evenodd">
        <g id="temp" transform="translate(-418.000000, -212.000000)" fill="#B8BDBF">
            <path d="M422.135135,220.855024 C421.507027,220.855024 421,221.397168 421,222.068779 C421,222.740391 421.507027,223.282535 422.135135,223.282535 C422.763243,223.282535 423.27027,222.740391 423.27027,222.068779 C423.27027,221.397168 422.763243,220.855024 422.135135,220.855024 L422.135135,220.855024 L422.135135,220.855024 Z M422.135135,216 C421.507027,216 421,216.542144 421,217.213756 C421,217.885367 421.507027,218.427512 422.135135,218.427512 C422.763243,218.427512 423.27027,217.885367 423.27027,217.213756 C423.27027,216.542144 422.763243,216 422.135135,216 L422.135135,216 L422.135135,216 Z M422.135135,225.847606 C421.575135,225.847606 421.128649,226.333109 421.128649,226.923803 C421.128649,227.514498 421.582703,228 422.135135,228 C422.687568,228 423.141622,227.514498 423.141622,226.923803 C423.141622,226.333109 422.695135,225.847606 422.135135,225.847606 L422.135135,225.847606 L422.135135,225.847606 Z M424.405405,227.732974 L435,227.732974 L435,226.114633 L424.405405,226.114633 L424.405405,227.732974 L424.405405,227.732974 L424.405405,227.732974 Z M424.405405,222.87795 L435,222.87795 L435,221.259609 L424.405405,221.259609 L424.405405,222.87795 L424.405405,222.87795 L424.405405,222.87795 Z M424.405405,216.404585 L424.405405,218.022926 L435,218.022926 L435,216.404585 L424.405405,216.404585 L424.405405,216.404585 L424.405405,216.404585 Z" id="icon/legend"></path>
        </g>
    </g>
</svg>