<?xml version="1.0" encoding="UTF-8"?>
<svg width="20px" height="20px" viewBox="0 0 20 20" version="1.1" xmlns="http://www.w3.org/2000/svg" xmlns:xlink="http://www.w3.org/1999/xlink">
    <!-- Generator: Sketch 39.1 (31720) - http://www.bohemiancoding.com/sketch -->
    <title>icon/20/search</title>
    <desc>Created with Sketch.</desc>
    <defs></defs>
    <g id="Output-temp" stroke="none" stroke-width="1" fill="none" fill-rule="evenodd">
        <g id="temp" transform="translate(-470.000000, -212.000000)" fill="#B8BDBF">
            <path d="M483.005718,223.805031 L482.373356,223.805031 L482.149228,223.588908 C482.933676,222.676387 483.405946,221.49171 483.405946,220.202973 C483.405946,217.329331 481.076615,215 478.202973,215 C475.329331,215 473,217.329331 473,220.202973 C473,223.076615 475.329331,225.405946 478.202973,225.405946 C479.49171,225.405946 480.676387,224.933676 481.588908,224.149228 L481.805031,224.373356 L481.805031,225.005718 L485.807319,229 L487,227.807319 L483.005718,223.805031 L483.005718,223.805031 L483.005718,223.805031 Z M478.202973,223.805031 C476.209834,223.805031 474.600915,222.196112 474.600915,220.202973 C474.600915,218.209834 476.209834,216.600915 478.202973,216.600915 C480.196112,216.600915 481.805031,218.209834 481.805031,220.202973 C481.805031,222.196112 480.196112,223.805031 478.202973,223.805031 L478.202973,223.805031 L478.202973,223.805031 Z" id="icon/search"></path>
        </g>
    </g>
</svg>