<?xml version="1.0" encoding="UTF-8"?>
<svg width="20px" height="20px" viewBox="0 0 20 20" version="1.1" xmlns="http://www.w3.org/2000/svg" xmlns:xlink="http://www.w3.org/1999/xlink">
    <!-- Generator: Sketch 39.1 (31720) - http://www.bohemiancoding.com/sketch -->
    <title>icon/20/tick-circle</title>
    <desc>Created with Sketch.</desc>
    <defs></defs>
    <g id="Output-temp" stroke="none" stroke-width="1" fill="none" fill-rule="evenodd">
        <g id="temp" transform="translate(-314.000000, -256.000000)" fill="#B8BDBF">
            <path d="M323.7796,258 C319.483152,258 316,261.483774 316,265.78 C316,270.077028 319.483152,273.56 323.7796,273.56 C328.076849,273.56 331.56,270.077028 331.56,265.78 C331.56,261.483774 328.076849,258 323.7796,258 L323.7796,258 Z M323.335085,268.209473 C323.06594,268.471176 322.629184,268.471176 322.360039,268.209473 L320.536461,266.436315 C320.19318,266.102526 320.19318,265.561881 320.536461,265.228876 L320.549354,265.216339 C320.891829,264.883333 321.447847,264.883333 321.790322,265.217123 L322.847562,266.245914 L325.770283,263.404004 C326.113564,263.070999 326.668776,263.070999 327.011251,263.404004 L327.024144,263.416541 C327.366619,263.749547 327.366619,264.289408 327.024144,264.622414 L323.335085,268.209473 Z" id="icon/tick-circle"></path>
        </g>
    </g>
</svg>