<?xml version="1.0" encoding="UTF-8"?>
<svg width="20px" height="20px" viewBox="0 0 20 20" version="1.1" xmlns="http://www.w3.org/2000/svg" xmlns:xlink="http://www.w3.org/1999/xlink">
    <!-- Generator: Sketch 39.1 (31720) - http://www.bohemiancoding.com/sketch -->
    <title>icon/20/zoom-in</title>
    <desc>Created with Sketch.</desc>
    <defs></defs>
    <g id="Output-temp" stroke="none" stroke-width="1" fill="none" fill-rule="evenodd">
        <g id="temp" transform="translate(-522.000000, -212.000000)" fill="#B8BDBF">
            <path d="M535.005718,223.805031 L534.373356,223.805031 L534.149228,223.588908 C534.933676,222.676387 535.405946,221.49171 535.405946,220.202973 C535.405946,217.329331 533.076615,215 530.202973,215 C527.329331,215 525,217.329331 525,220.202973 C525,223.076615 527.329331,225.405946 530.202973,225.405946 C531.49171,225.405946 532.676387,224.933676 533.588908,224.149228 L533.805031,224.373356 L533.805031,225.005718 L537.807319,229 L539,227.807319 L535.005718,223.805031 Z M530.202973,223.805031 C528.209834,223.805031 526.600915,222.196112 526.600915,220.202973 C526.600915,218.209834 528.209834,216.600915 530.202973,216.600915 C532.196112,216.600915 533.805031,218.209834 533.805031,220.202973 C533.805031,222.196112 532.196112,223.805031 530.202973,223.805031 Z M529.516581,219.666667 L527.333333,219.666667 L527.333333,220.867353 L529.516581,220.867353 L529.516581,222.583333 L531.017439,222.583333 L531.017439,220.867353 L533.166667,220.867353 L533.166667,219.666667 L531.017439,219.666667 L531.017439,217.916667 L529.516581,217.916667 L529.516581,219.666667 Z" id="icon/zoom-in"></path>
        </g>
    </g>
</svg>