<?xml version="1.0" encoding="UTF-8"?>
<svg width="20px" height="20px" viewBox="0 0 20 20" version="1.1" xmlns="http://www.w3.org/2000/svg" xmlns:xlink="http://www.w3.org/1999/xlink">
    <!-- Generator: Sketch 39.1 (31720) - http://www.bohemiancoding.com/sketch -->
    <title>icon/20/zoom-out</title>
    <desc>Created with Sketch.</desc>
    <defs></defs>
    <g id="Output-temp" stroke="none" stroke-width="1" fill="none" fill-rule="evenodd">
        <g id="temp" transform="translate(-574.000000, -212.000000)" fill="#B8BDBF">
            <path d="M587.005718,223.805031 L586.373356,223.805031 L586.149228,223.588908 C586.933676,222.676387 587.405946,221.49171 587.405946,220.202973 C587.405946,217.329331 585.076615,215 582.202973,215 C579.329331,215 577,217.329331 577,220.202973 C577,223.076615 579.329331,225.405946 582.202973,225.405946 C583.49171,225.405946 584.676387,224.933676 585.588908,224.149228 L585.805031,224.373356 L585.805031,225.005718 L589.807319,229 L591,227.807319 L587.005718,223.805031 L587.005718,223.805031 L587.005718,223.805031 Z M582.202973,223.805031 C580.209834,223.805031 578.600915,222.196112 578.600915,220.202973 C578.600915,218.209834 580.209834,216.600915 582.202973,216.600915 C584.196112,216.600915 585.805031,218.209834 585.805031,220.202973 C585.805031,222.196112 584.196112,223.805031 582.202973,223.805031 L582.202973,223.805031 L582.202973,223.805031 Z M579.916667,219.666667 L584.583333,219.666667 L584.583333,220.867353 L579.916667,220.867353 L579.916667,219.666667 L579.916667,219.666667 Z" id="icon/zoom-out"></path>
        </g>
    </g>
</svg>