<?xml version="1.0" encoding="UTF-8"?>
<svg width="18px" height="18px" viewBox="0 0 18 18" version="1.1" xmlns="http://www.w3.org/2000/svg" xmlns:xlink="http://www.w3.org/1999/xlink">
    <!-- Generator: Sketch 39.1 (31720) - http://www.bohemiancoding.com/sketch -->
    <title>icon/18/circle-info</title>
    <desc>Created with Sketch.</desc>
    <defs></defs>
    <g id="Output-temp" stroke="none" stroke-width="1" fill="none" fill-rule="evenodd">
        <g id="temp" transform="translate(-454.000000, -94.000000)" fill="#B8BDBF">
            <path d="M463.000051,109.996709 C459.140135,109.996709 456,106.859865 456,103.000051 C456,99.140135 459.140135,96 463.000051,96 C466.859968,96 470,99.140135 470,103.000051 C470,106.859865 466.859968,109.996709 463.000051,109.996709 L463.000051,109.996709 Z M463.000051,96.6856384 C459.518074,96.6856384 456.685638,99.5180744 456.685638,103.000052 C456.685638,106.481926 459.518074,109.314465 463.000051,109.314465 C466.481926,109.314465 469.314464,106.481926 469.314464,103.000052 C469.314464,99.5180744 466.481926,96.6856384 463.000051,96.6856384 L463.000051,96.6856384 Z M462.1,102.1 L463.9,102.1 L463.9,106.6 L462.1,106.6 L462.1,102.1 Z M462.1,99.4 L463.9,99.4 L463.9,101.2 L462.1,101.2 L462.1,99.4 Z" id="path"></path>
        </g>
    </g>
</svg>