<?xml version="1.0" encoding="UTF-8"?>
<svg width="18px" height="18px" viewBox="0 0 18 18" version="1.1" xmlns="http://www.w3.org/2000/svg" xmlns:xlink="http://www.w3.org/1999/xlink">
    <!-- Generator: Sketch 39.1 (31720) - http://www.bohemiancoding.com/sketch -->
    <title>icon/18/circle-add</title>
    <desc>Created with Sketch.</desc>
    <defs></defs>
    <g id="Output-temp" stroke="none" stroke-width="1" fill="none" fill-rule="evenodd">
        <g id="temp" transform="translate(-604.000000, -94.000000)" fill="#B8BDBF">
            <path d="M613.875,102.125 L613.875,100.372401 C613.875,99.8964068 613.483249,99.5 613,99.5 C612.513382,99.5 612.125,99.8905874 612.125,100.372401 L612.125,102.125 L610.372401,102.125 C609.896407,102.125 609.5,102.516751 609.5,103 C609.5,103.486618 609.890587,103.875 610.372401,103.875 L612.125,103.875 L612.125,105.627599 C612.125,106.103593 612.516751,106.5 613,106.5 C613.486618,106.5 613.875,106.109413 613.875,105.627599 L613.875,103.875 L615.627599,103.875 C616.103593,103.875 616.5,103.483249 616.5,103 C616.5,102.513382 616.109413,102.125 615.627599,102.125 L613.875,102.125 Z M612.99964,96 C609.133941,96 606,99.1345005 606,103 C606,106.86622 609.133941,110 612.99964,110 C616.866059,110 620,106.86622 620,103 C620,99.1345005 616.866059,96 612.99964,96 Z" id="icon/circle-add"></path>
        </g>
    </g>
</svg>