<?xml version="1.0" encoding="UTF-8"?>
<svg width="18px" height="18px" viewBox="0 0 18 18" version="1.1" xmlns="http://www.w3.org/2000/svg" xmlns:xlink="http://www.w3.org/1999/xlink">
    <!-- Generator: Sketch 39.1 (31720) - http://www.bohemiancoding.com/sketch -->
    <title>icon/18/circle-restore</title>
    <desc>Created with Sketch.</desc>
    <defs></defs>
    <g id="Output-temp" stroke="none" stroke-width="1" fill="none" fill-rule="evenodd">
        <g id="temp" transform="translate(-404.000000, -94.000000)" fill="#B8BDBF">
            <path d="M413,96 C409.134,96 406,99.134 406,103 C406,106.866 409.134,110 413,110 C416.866,110 420,106.866 420,103 C420,99.134 416.866,96 413,96 Z M413,98.4299 C410.791,98.4299 409,100.2209 409,102.4299 L410.6,102.4299 C410.6,101.1049 411.675,100.0299 413,100.0299 C414.325,100.0299 415.4,101.1049 415.4,102.4299 C415.4,103.7549 414.325,104.8299 413,104.8299 L413,103.6859 L410.653,105.6089 L413,107.5699 L413,106.4299 C415.209,106.4299 417,104.6389 417,102.4299 C417,100.2209 415.209,98.4299 413,98.4299 Z" id="path"></path>
        </g>
    </g>
</svg>