<?xml version="1.0" encoding="UTF-8"?>
<svg width="18px" height="18px" viewBox="0 0 18 18" version="1.1" xmlns="http://www.w3.org/2000/svg" xmlns:xlink="http://www.w3.org/1999/xlink">
    <!-- Generator: Sketch 39.1 (31720) - http://www.bohemiancoding.com/sketch -->
    <title>icon/18/circle-minus</title>
    <desc>Created with Sketch.</desc>
    <defs></defs>
    <g id="Output-temp" stroke="none" stroke-width="1" fill="none" fill-rule="evenodd">
        <g id="temp" transform="translate(-654.000000, -94.000000)" fill="#B8BDBF">
            <path d="M662.99964,96 C659.133941,96 656,99.1345005 656,103 C656,106.86622 659.133941,110 662.99964,110 C666.866059,110 670,106.86622 670,103 C670,99.1345005 666.866059,96 662.99964,96 Z M665.627599,102.125 C666.109413,102.125 666.5,102.513382 666.5,103 C666.5,103.483249 666.103593,103.875 665.627599,103.875 L660.372401,103.875 C659.890587,103.875 659.5,103.486618 659.5,103 C659.5,102.516751 659.896407,102.125 660.372401,102.125 L665.627599,102.125 Z" id="icom/circle-minus"></path>
        </g>
    </g>
</svg>