<?xml version="1.0" encoding="UTF-8"?>
<svg width="18px" height="18px" viewBox="0 0 18 18" version="1.1" xmlns="http://www.w3.org/2000/svg" xmlns:xlink="http://www.w3.org/1999/xlink">
    <!-- Generator: Sketch 39.1 (31720) - http://www.bohemiancoding.com/sketch -->
    <title>icon/18/search</title>
    <desc>Created with Sketch.</desc>
    <defs></defs>
    <g id="Output-temp" stroke="none" stroke-width="1" fill="none" fill-rule="evenodd">
        <g id="temp" transform="translate(-554.000000, -94.000000)" fill="#B8BDBF">
            <path d="M566.005146,104.924528 L565.436021,104.924528 L565.234305,104.730017 C565.940309,103.908748 566.365352,102.842539 566.365352,101.682676 C566.365352,99.0963979 564.268954,97 561.682676,97 C559.096398,97 557,99.0963979 557,101.682676 C557,104.268954 559.096398,106.365352 561.682676,106.365352 C562.842539,106.365352 563.908748,105.940309 564.730017,105.234305 L564.924528,105.436021 L564.924528,106.005146 L568.526587,109.6 L569.6,108.526587 L566.005146,104.924528 L566.005146,104.924528 L566.005146,104.924528 Z M561.682676,104.924528 C559.888851,104.924528 558.440823,103.476501 558.440823,101.682676 C558.440823,99.8888508 559.888851,98.4408233 561.682676,98.4408233 C563.476501,98.4408233 564.924528,99.8888508 564.924528,101.682676 C564.924528,103.476501 563.476501,104.924528 561.682676,104.924528 L561.682676,104.924528 L561.682676,104.924528 Z" id="icon/search"></path>
        </g>
    </g>
</svg>