<?xml version="1.0" encoding="UTF-8"?><!DOCTYPE svg PUBLIC "-//W3C//DTD SVG 1.1//EN" "http://www.w3.org/Graphics/SVG/1.1/DTD/svg11.dtd"><svg width="524" height="516" viewBox="0 0 524 516" xmlns="http://www.w3.org/2000/svg" xmlns:xlink="http://www.w3.org/1999/xlink"><svg width="28" height="28" viewBox="-5 -5 28 28" id="add"><title>icon/18/add</title><path d="M8 10H4V8h4V4h2v4h4v2h-4v4H8v-4z" fill="#B8BDBF" fill-rule="evenodd"/></svg><svg width="28" height="28" viewBox="-5 -5 28 28" id="arrow-down" x="28" y="28"><title>icon/18/arrow-down</title><path d="M9 12l.396-.35L15 6.7l-.792-.7L9 10.626 3.792 6 3 6.7l5.604 4.95z" fill="#B8BDBF" fill-rule="evenodd"/></svg><svg width="28" height="28" viewBox="-5 -5 28 28" id="arrow-up" x="56" y="56"><title>icon/18/arrow-up</title><path d="M9 6l.396.35L15 11.3l-.792.7L9 7.374 3.792 12 3 11.3l5.604-4.95z" fill="#B8BDBF" fill-rule="evenodd"/></svg><svg width="28" height="28" viewBox="-5 -5 28 28" id="chevron-left" x="84" y="84"><title>icon/18/chevron-left</title><path d="M10.858 3L6 9l4.858 6L12 13.59 8.291 9 12 4.41z" fill="#B8BDBF" fill-rule="evenodd"/></svg><svg width="28" height="28" viewBox="-5 -5 28 28" id="chevron-right" x="112" y="112"><title>icon/18/chevron-right</title><path d="M7.142 3L12 9l-4.858 6L6 13.59 9.709 9 6 4.41z" fill="#B8BDBF" fill-rule="evenodd"/></svg><svg width="28" height="28" viewBox="-5 -5 28 28" id="circle-add" x="140" y="140"><title>icon/18/circle-add</title><path d="M9.875 8.125V6.372A.877.877 0 0 0 9 5.5a.872.872 0 0 0-.875.872v1.753H6.372A.877.877 0 0 0 5.5 9c0 .487.39.875.872.875h1.753v1.753c0 .476.392.872.875.872.487 0 .875-.39.875-.872V9.875h1.753A.877.877 0 0 0 12.5 9a.872.872 0 0 0-.872-.875H9.875zM9 2a7 7 0 1 0 0 14A7 7 0 0 0 9 2z" fill="#B8BDBF" fill-rule="evenodd"/></svg><svg width="28" height="28" viewBox="-5 -5 28 28" id="circle-exclamation" x="168" y="168"><title>icon/18/circle-exclamation</title><path d="M9 16c-3.864 0-7-3.136-7-7s3.136-7 7-7 7 3.136 7 7-3.136 7-7 7zm1-12H8v6h2V4zm0 7H8v2h2v-2z" fill="#B8BDBF" fill-rule="evenodd"/></svg><svg width="28" height="28" viewBox="-5 -5 28 28" id="circle-info" x="196" y="196"><title>icon/18/circle-info</title><path d="M9 15.997c-3.86 0-7-3.137-7-6.997s3.14-7 7-7 7 3.14 7 7-3.14 6.997-7 6.997zM9 2.686A6.321 6.321 0 0 0 2.686 9 6.321 6.321 0 0 0 9 15.314 6.321 6.321 0 0 0 15.314 9 6.321 6.321 0 0 0 9 2.686zM8.1 8.1h1.8v4.5H8.1V8.1zm0-2.7h1.8v1.8H8.1V5.4z" fill="#B8BDBF" fill-rule="evenodd"/></svg><svg width="28" height="28" viewBox="-5 -5 28 28" id="circle-minus" x="224" y="224"><title>icon/18/circle-minus</title><path d="M9 2a7 7 0 1 0 0 14A7 7 0 0 0 9 2zm2.628 6.125c.481 0 .872.388.872.875a.877.877 0 0 1-.872.875H6.372A.872.872 0 0 1 5.5 9c0-.483.396-.875.872-.875h5.256z" fill="#B8BDBF" fill-rule="evenodd"/></svg><svg width="28" height="28" viewBox="-5 -5 28 28" id="circle-restore" x="252" y="252"><title>icon/18/circle-restore</title><path d="M9 2a7 7 0 1 0 0 14A7 7 0 0 0 9 2zm0 2.43a4 4 0 0 0-4 4h1.6a2.4 2.4 0 1 1 2.4 2.4V9.686l-2.347 1.923L9 13.569v-1.14a4 4 0 0 0 0-8z" fill="#B8BDBF" fill-rule="evenodd"/></svg><svg width="20" height="32" viewBox="-5 -5 20 32" id="facebook" x="280" y="280"><g><path d="M3.478 1.235C4.312.418 5.501.142 6.623.108 7.809.097 8.994.104 10.18.104c.004 1.284.006 2.57-.001 3.854-.768-.002-1.534.001-2.299-.002-.486-.031-.986.346-1.074.842-.012.859-.004 1.719-.004 2.578 1.124.005 2.248-.001 3.371.003a48.707 48.707 0 0 1-.408 3.713c-.993.01-1.986-.001-2.979.005-.009 3.667.005 7.333-.008 11-1.474.006-2.949-.004-4.423.004-.028-3.667.002-7.336-.015-11.003-.72-.008-1.439.006-2.159-.006.004-1.232.002-2.466.002-3.698.719-.007 1.438.003 2.158-.005.021-1.198-.022-2.397.022-3.595.072-.948.424-1.903 1.115-2.559z" fill="#3d599a"/></g></svg><svg width="28" height="28" viewBox="-5 -5 28 28" id="search" x="300" y="312"><title>icon/18/search</title><path d="M12.005 10.925h-.569l-.202-.195a4.662 4.662 0 0 0 1.131-3.047 4.683 4.683 0 1 0-4.682 4.682c1.16 0 2.226-.425 3.047-1.13l.195.201v.57l3.602 3.594 1.073-1.073-3.595-3.602zm-4.322 0A3.238 3.238 0 0 1 4.44 7.683 3.238 3.238 0 0 1 7.683 4.44a3.238 3.238 0 0 1 3.242 3.242 3.238 3.238 0 0 1-3.242 3.242z" fill="#B8BDBF" fill-rule="evenodd"/></svg><svg width="28" height="28" viewBox="-5 -5 28 28" id="sort" x="328" y="340"><title>icon/18/sort</title><path d="M9 4l3 4H6l3-4zm-3 6h6l-3 4-3-4z" fill="#B8BDBF" fill-rule="evenodd"/></svg><svg width="28" height="28" viewBox="-5 -5 28 28" id="triangle-down" x="356" y="368"><title>icon/18/triangle-down</title><path d="M6 7h6l-3 4z" fill="#B8BDBF" fill-rule="evenodd"/></svg><svg width="28" height="28" viewBox="-5 -5 28 28" id="triangle-up" x="384" y="396"><title>icon/18/triangle-up</title><path d="M12 11H6l3-4z" fill="#B8BDBF" fill-rule="evenodd"/></svg><svg width="42" height="32" viewBox="-5 -5 42 32" id="twitter" x="412" y="424"><path d="M20.029 1.021C20.722.502 21.525.101 22.396 0c-.121.517-.614.786-1.046 1.021.65-.19 1.285-.472 1.97-.519.185-.006.444.001.51.212.098.262-.17.467-.374.576-.748.383-1.612.439-2.373.792 1.563-.146 3.124.456 4.311 1.448 1.415 1.155 2.352 2.827 2.691 4.605 1.252.333 2.604.092 3.778-.403-.59 1.326-2.093 1.931-3.468 2.049 1.143.427 2.398.5 3.604.373-.957 1.05-2.437 1.46-3.827 1.428-.578 2.343-1.954 4.445-3.739 6.065-3.473 3.117-8.282 4.611-12.931 4.314C7.036 21.692 2.639 19.509 0 15.887c.23.133.424.317.645.466 2.043 1.466 4.763 1.931 7.193 1.277 1.475-.378 2.812-1.195 3.881-2.262-.683.045-1.443-.075-1.939-.586-.31-.292-.437-.772-.25-1.163.225-.494.725-.775 1.199-.996-1.551.219-3.241-.497-3.956-1.918.524-.619 1.361-.817 2.138-.878-.904-.261-1.834-.581-2.52-1.251a3.325 3.325 0 0 1-1.006-1.942c.64-.118 1.284-.263 1.941-.236-1.49-.768-2.85-2.231-2.731-4 2.824 1.021 5.601 2.186 8.254 3.591.928.506 1.7 1.237 2.458 1.958.734-1.892 1.524-3.792 2.72-5.451.64-.873 1.396-1.685 2.324-2.261-.038.288-.185.537-.322.786z" fill="#4da7de"/></svg><svg width="42" height="32" viewBox="-5 -5 42 32" id="twitterHover" x="454" y="456"><path d="M20.029 1.021C20.722.502 21.525.101 22.396 0c-.121.517-.614.786-1.046 1.021.65-.19 1.285-.472 1.97-.519.185-.006.444.001.51.212.098.262-.17.467-.374.576-.748.383-1.612.439-2.373.792 1.563-.146 3.124.456 4.311 1.448 1.415 1.155 2.352 2.827 2.691 4.605 1.252.333 2.604.092 3.778-.403-.59 1.326-2.093 1.931-3.468 2.049 1.143.427 2.398.5 3.604.373-.957 1.05-2.437 1.46-3.827 1.428-.578 2.343-1.954 4.445-3.739 6.065-3.473 3.117-8.282 4.611-12.931 4.314C7.036 21.692 2.639 19.509 0 15.887c.23.133.424.317.645.466 2.043 1.466 4.763 1.931 7.193 1.277 1.475-.378 2.812-1.195 3.881-2.262-.683.045-1.443-.075-1.939-.586-.31-.292-.437-.772-.25-1.163.225-.494.725-.775 1.199-.996-1.551.219-3.241-.497-3.956-1.918.524-.619 1.361-.817 2.138-.878-.904-.261-1.834-.581-2.52-1.251a3.325 3.325 0 0 1-1.006-1.942c.64-.118 1.284-.263 1.941-.236-1.49-.768-2.85-2.231-2.731-4 2.824 1.021 5.601 2.186 8.254 3.591.928.506 1.7 1.237 2.458 1.958.734-1.892 1.524-3.792 2.72-5.451.64-.873 1.396-1.685 2.324-2.261-.038.288-.185.537-.322.786z" fill="#186593"/></svg><svg width="28" height="28" viewBox="-5 -5 28 28" id="x" x="496" y="488"><title>icon/18/x</title><path d="M14 5.007L12.993 4 9 7.993 5.007 4 4 5.007 7.993 9 4 12.993 5.007 14 9 10.007 12.993 14 14 12.993 10.007 9z" fill="#B8BDBF" fill-rule="evenodd"/></svg></svg>