<?xml version="1.0" encoding="UTF-8"?>
<svg width="28px" height="28px" viewBox="0 0 28 28" version="1.1" xmlns="http://www.w3.org/2000/svg" xmlns:xlink="http://www.w3.org/1999/xlink">
    <!-- Generator: Sketch 39.1 (31720) - http://www.bohemiancoding.com/sketch -->
    <title>icon/28/eye</title>
    <desc>Created with Sketch.</desc>
    <defs></defs>
    <g id="Output-temp" stroke="none" stroke-width="1" fill="none" fill-rule="evenodd">
        <g id="temp" transform="translate(-234.000000, -640.000000)" fill="#B8BDBF">
            <path d="M259.066331,652.935641 C257.692793,650.976597 254.171019,647 248.210382,647 C242.271958,647 238.722417,650.986348 237.338698,652.942467 C236.893501,653.572404 236.886097,654.436373 237.322963,655.07216 C238.670586,657.03413 242.145156,661 248.210382,661 C254.199711,661 257.704825,657.028279 259.070033,655.068259 C259.511527,654.434422 259.509676,653.567528 259.066331,652.935641 L259.066331,652.935641 Z M248.201126,658.806923 C245.680813,658.806923 243.638092,656.654803 243.638092,654.000488 C243.638092,651.345197 245.680813,649.193077 248.201126,649.193077 C250.720513,649.193077 252.763235,651.345197 252.763235,654.000488 C252.763235,656.654803 250.720513,658.806923 248.201126,658.806923 L248.201126,658.806923 Z M250.664054,654.000488 C250.664054,655.43296 249.560781,656.595319 248.201126,656.595319 C246.840546,656.595319 245.738198,655.43296 245.738198,654.000488 C245.738198,652.56704 246.840546,651.405656 248.201126,651.405656 C249.560781,651.405656 250.664054,652.56704 250.664054,654.000488 L250.664054,654.000488 Z" id="icon/eye"></path>
        </g>
    </g>
</svg>