<?xml version="1.0" encoding="UTF-8"?>
<svg width="28px" height="28px" viewBox="0 0 28 28" version="1.1" xmlns="http://www.w3.org/2000/svg" xmlns:xlink="http://www.w3.org/1999/xlink">
    <!-- Generator: Sketch 39.1 (31720) - http://www.bohemiancoding.com/sketch -->
    <title>icon/28/host</title>
    <desc>Created with Sketch.</desc>
    <defs></defs>
    <g id="Output-temp" stroke="none" stroke-width="1" fill="none" fill-rule="evenodd">
        <g id="temp" transform="translate(-114.000000, -640.000000)" fill="#B8BDBF">
            <path d="M116,664 L140,664 L140,659 L116,659 L116,664 L116,664 L116,664 Z M118.4,660.25 L120.8,660.25 L120.8,662.75 L118.4,662.75 L118.4,660.25 L118.4,660.25 L118.4,660.25 Z M116,644 L116,649 L140,649 L140,644 L116,644 L116,644 L116,644 Z M120.8,647.75 L118.4,647.75 L118.4,645.25 L120.8,645.25 L120.8,647.75 L120.8,647.75 L120.8,647.75 Z M116,656.5 L140,656.5 L140,651.5 L116,651.5 L116,656.5 L116,656.5 L116,656.5 Z M118.4,652.75 L120.8,652.75 L120.8,655.25 L118.4,655.25 L118.4,652.75 L118.4,652.75 L118.4,652.75 Z" id="icon/host"></path>
        </g>
    </g>
</svg>