<?xml version="1.0" encoding="UTF-8"?>
<svg width="28px" height="28px" viewBox="0 0 28 28" version="1.1" xmlns="http://www.w3.org/2000/svg" xmlns:xlink="http://www.w3.org/1999/xlink">
    <!-- Generator: Sketch 39.1 (31720) - http://www.bohemiancoding.com/sketch -->
    <title>icon/28/user-group</title>
    <desc>Created with Sketch.</desc>
    <defs></defs>
    <g id="Output-temp" stroke="none" stroke-width="1" fill="none" fill-rule="evenodd">
        <g id="temp" transform="translate(-54.000000, -640.000000)" fill="#B8BDBF">
            <path d="M72.7272728,653.260504 C74.6890909,653.260504 76.2609091,651.638992 76.2609091,649.630252 C76.2609091,647.621513 74.6890909,646 72.7272728,646 C70.7654546,646 69.1818182,647.621513 69.1818182,649.630252 C69.1818182,651.638992 70.7654546,653.260504 72.7272728,653.260504 L72.7272728,653.260504 L72.7272728,653.260504 Z M63.2727273,653.260504 C65.2345455,653.260504 66.8063637,651.638992 66.8063637,649.630252 C66.8063637,647.621513 65.2345455,646 63.2727273,646 C61.3109091,646 59.7272727,647.621513 59.7272727,649.630252 C59.7272727,651.638992 61.3109091,653.260504 63.2727273,653.260504 L63.2727273,653.260504 L63.2727273,653.260504 Z M63.2727273,654.739496 C60.5190909,654.739496 55,656.155294 55,658.97479 L55,662 L71.5454546,662 L71.5454546,658.97479 C71.5454546,656.155294 66.0263637,654.739496 63.2727273,654.739496 L63.2727273,654.739496 L63.2727273,654.739496 Z M72.7272728,654.739496 C72.3845454,654.739496 71.9945454,654.763697 71.5809091,654.8 C72.9518182,655.816471 73.9090909,657.183865 73.9090909,658.97479 L73.9090909,662 L81,662 L81,658.97479 C81,656.155294 75.4809091,654.739496 72.7272728,654.739496 L72.7272728,654.739496 L72.7272728,654.739496 Z" id="icon/user-group"></path>
        </g>
    </g>
</svg>