<svg width="2058" height="2058" viewBox="0 0 2058 2058" xmlns="http://www.w3.org/2000/svg" xmlns:xlink="http://www.w3.org/1999/xlink"><svg width="34" height="34" viewBox="-5 -5 34 34"><title>add</title><desc>owl-icon</desc><path d="M20 13.6h-6.4V20h-3.2v-6.4H4v-3.2h6.4V4h3.2v6.4H20v3.2z" fill="#B8BDBF" fill-rule="evenodd"/></svg><svg width="34" height="34" viewBox="-5 -5 34 34" x="34" y="34"><title>alarm</title><desc>owl-icon</desc><path d="M21.13 21H2.87c-.757 0-1.082-.514-.725-1.149l9.209-16.375c.357-.635.935-.635 1.292 0l9.21 16.375c.356.635.031 1.149-.727 1.149zM11 9h2v2.465L12.482 16h-.952L11 11.465V9zm0 8h2v2h-2v-2z" fill="#B8BDBF" fill-rule="evenodd"/></svg><svg width="34" height="34" viewBox="-5 -5 34 34" x="68" y="68"><title>arrow-down</title><desc>owl-icon</desc><path d="M12 16l.528-.467L20 8.933 18.943 8 12 14.167 5.057 8 4 8.933l7.472 6.6z" fill="#B8BDBF" fill-rule="evenodd"/></svg><svg width="34" height="34" viewBox="-5 -5 34 34" x="102" y="102"><title>arrow-up</title><desc>owl-icon</desc><path d="M12 8l.528.467 7.472 6.6-1.057.933L12 9.833 5.057 16 4 15.067l7.472-6.6z" fill="#B8BDBF" fill-rule="evenodd"/></svg><svg width="34" height="34" viewBox="-5 -5 34 34" x="136" y="136"><title>bell</title><desc>owl-icon</desc><path d="M10.231 19.294c0 .943.791 1.706 1.769 1.706.978 0 1.769-.763 1.769-1.706H10.23zm7.885-8.58c0-2.785-2-5.117-4.703-5.734v-.617C13.413 3.609 12.783 3 12 3c-.782 0-1.413.609-1.413 1.363v.617c-2.703.617-4.703 2.949-4.703 5.734v4.989L4 17.52v.909h16v-.909l-1.884-1.817v-4.989z" fill="#B8BDBF" fill-rule="evenodd"/></svg><svg width="30" height="30" viewBox="-5 -5 30 30" x="170" y="170"><title>bin</title><desc>owl-icon</desc><path d="M5 16.73c0 .535.75 1.27 1.25 1.27h7.5c.5 0 1.25-.735 1.25-1.27V6.571H5v10.16zM16 3.674h-2.667L12 2H8L6.667 3.674H4V5.35h12V3.674z" fill="#B8BDBF" fill-rule="evenodd"/></svg><svg width="34" height="34" viewBox="-5 -5 34 34" x="200" y="200"><title>board</title><desc>owl-icon</desc><path d="M19.2 4H4.8c-.99 0-1.791.9-1.791 2L3 18c0 1.1.81 2 1.8 2h14.4c.99 0 1.8-.9 1.8-2V6c0-1.1-.81-2-1.8-2zm-4.5 14H4.8v-4h9.9v4zm0-5H4.8V9h9.9v4zm4.5 5h-3.6V9h3.6v9z" fill="#B8BDBF" fill-rule="evenodd"/></svg><svg width="34" height="34" viewBox="-5 -5 34 34" x="234" y="234"><title>check</title><desc>owl-icon</desc><path d="M17.644 7.262L16.31 6l-5.999 5.673 1.334 1.262 6-5.673zM21.656 6l-10.01 9.468-3.956-3.732-1.334 1.262L11.646 18 23 7.262 21.656 6zM1 12.998L6.29 18l1.334-1.262-5.28-5.002L1 12.998z" fill="#B8BDBF" fill-rule="evenodd"/></svg><svg width="38" height="38" viewBox="-5 -5 38 38" x="268" y="268"><title>chevron-left</title><desc>owl-icon</desc><path d="M16.557 4L9 13.333l7.557 9.334 1.776-2.194-5.768-7.14 5.768-7.14z" fill="#B8BDBF" fill-rule="evenodd"/></svg><svg width="38" height="38" viewBox="-5 -5 38 38" x="306" y="306"><title>chevron-right</title><desc>owl-icon</desc><path d="M10.776 4l7.557 9.333-7.557 9.334L9 20.473l5.769-7.14L9 6.193z" fill="#B8BDBF" fill-rule="evenodd"/></svg><svg width="30" height="30" viewBox="-5 -5 30 30" x="344" y="344"><title>circle-add</title><desc>owl-icon</desc><path d="M10.75 8.806V6.858a.975.975 0 0 0-.972-.97.968.968 0 0 0-.972.97v1.948H6.858a.975.975 0 0 0-.97.972c0 .54.435.972.97.972h1.948v1.947c0 .53.435.97.972.97.54 0 .972-.434.972-.97V10.75h1.947c.53 0 .97-.435.97-.972a.968.968 0 0 0-.97-.972H10.75zM9.777 2a7.778 7.778 0 1 0 .002 15.556A7.778 7.778 0 0 0 9.777 2z" fill="#B8BDBF" fill-rule="evenodd"/></svg><svg width="30" height="30" viewBox="-5 -5 30 30" x="374" y="374"><title>circle-and</title><desc>owl-icon</desc><path d="M12.17 13.06a3.404 3.404 0 1 1-4.419-4.856 2.431 2.431 0 1 1 3.712.413c.433.357.775.82.988 1.348l.636-.477a.973.973 0 0 1 1.166 1.556l-.77.578.875.874a.973.973 0 1 1-1.376 1.375l-.812-.812zM9.78 2a7.78 7.78 0 1 0 0 15.56A7.78 7.78 0 0 0 9.78 2zm-.972 4.863a.972.972 0 1 1 1.944 0 .972.972 0 0 1-1.944 0zm-.973 4.376a1.459 1.459 0 1 1 2.918 0 1.459 1.459 0 0 1-2.918 0z" fill="#B8BDBF" fill-rule="evenodd"/></svg><svg width="30" height="30" viewBox="-5 -5 30 30" x="404" y="404"><title>circle-error</title><desc>owl-icon</desc><path d="M9.78 17.556C5.49 17.556 2 14.07 2 9.78 2 5.49 5.49 2 9.78 2s7.78 3.49 7.78 7.78-3.49 7.776-7.78 7.776zm0-14.794A7.026 7.026 0 0 0 2.762 9.78a7.026 7.026 0 0 0 7.018 7.018 7.026 7.026 0 0 0 7.018-7.018A7.026 7.026 0 0 0 9.78 2.762zm1.975 10.06c-.283 0-.549-.11-.75-.31L9.78 11.285l-1.227 1.227c-.4.4-1.1.4-1.5 0a1.06 1.06 0 0 1-.01-1.509L8.27 9.776 7.043 8.55a1.062 1.062 0 0 1 0-1.5 1.08 1.08 0 0 1 1.509-.009l1.227 1.227 1.227-1.227c.4-.4 1.097-.4 1.5 0 .422.423.422 1.096.009 1.509l-1.227 1.227 1.227 1.227c.2.2.31.467.31.75s-.11.55-.31.75c-.21.21-.476.32-.76.32zm-1.232-2.734a.438.438 0 0 1 0-.62l1.453-1.458a.298.298 0 0 0 0-.421.3.3 0 0 0-.431-.01l-1.456 1.456a.438.438 0 0 1-.62 0L8.013 7.579a.305.305 0 0 0-.421 0 .302.302 0 0 0-.01.431l1.456 1.456a.438.438 0 0 1 0 .62L7.58 11.542a.298.298 0 0 0 0 .421.3.3 0 0 0 .432.01l1.456-1.452a.438.438 0 0 1 .62 0l1.456 1.452c.113.113.31.113.42 0a.297.297 0 0 0 .01-.432l-1.452-1.453z" fill="#B8BDBF" fill-rule="evenodd"/></svg><svg width="30" height="30" viewBox="-5 -5 30 30" x="434" y="434"><title>circle-exclamation</title><desc>owl-icon</desc><path d="M9.778 17.556A7.78 7.78 0 0 1 2 9.778 7.78 7.78 0 0 1 9.778 2a7.78 7.78 0 0 1 7.778 7.778 7.78 7.78 0 0 1-7.778 7.778zm1.11-13.334h-2.22v6.667h2.222V4.222zm0 7.778h-2.22v2.222h2.222V12z" fill="#B8BDBF" fill-rule="evenodd"/></svg><svg width="28" height="28" viewBox="-5 -5 28 28" x="464" y="464"><title>circle-info</title><desc>owl-icon</desc><path d="M9 15.997c-3.86 0-7-3.137-7-6.997s3.14-7 7-7 7 3.14 7 7-3.14 6.997-7 6.997zM9 2.686A6.321 6.321 0 0 0 2.686 9 6.321 6.321 0 0 0 9 15.314 6.321 6.321 0 0 0 15.314 9 6.321 6.321 0 0 0 9 2.686zM8.1 8.1h1.8v4.5H8.1V8.1zm0-2.7h1.8v1.8H8.1V5.4z" fill="#B8BDBF" fill-rule="evenodd"/></svg><svg width="30" height="30" viewBox="-5 -5 30 30" x="492" y="492"><title>circle-minus</title><desc>owl-icon</desc><path d="M9.78 2a7.78 7.78 0 1 0 0 15.56A7.78 7.78 0 0 0 9.78 2zm2.92 6.808c.536 0 .97.431.97.972 0 .537-.44.972-.97.972H6.86a.969.969 0 0 1-.97-.972c0-.537.44-.972.97-.972h5.84z" fill="#B8BDBF" fill-rule="evenodd"/></svg><svg width="30" height="30" viewBox="-5 -5 30 30" x="522" y="522"><title>circle-open-new</title><desc>owl-icon</desc><path d="M9.78 2a7.78 7.78 0 1 0 0 15.56A7.78 7.78 0 0 0 9.78 2zm.973 2.918v1.458h1.458L7.35 11.24l.972.972 4.863-4.862v1.459h1.472v-3.89h-3.903zm2.43 8.266H6.377V6.35H9.78V4.918H5.998c-.6 0-1.08.486-1.08 1.08v7.564c0 .594.48 1.08 1.08 1.08h7.564c.594 0 1.08-.486 1.08-1.08V9.78h-1.458v3.404z" fill="#B8BDBF" fill-rule="evenodd"/></svg><svg width="30" height="30" viewBox="-5 -5 30 30" x="552" y="552"><title>circle-phone</title><desc>owl-icon</desc><path d="M9.78 2a7.78 7.78 0 1 0 0 15.56A7.78 7.78 0 0 0 9.78 2zm.026 9.877l1.333-.77 2.166.918-.684 2.55a7.05 7.05 0 0 1-4.091-1.961 6.922 6.922 0 0 1-1.166-1.494 6.922 6.922 0 0 1-.711-1.757 7.014 7.014 0 0 1 .346-4.524l2.551.683-.288 2.334-1.333.77c.116.615.325 1.22.654 1.79a5.677 5.677 0 0 0 1.223 1.461z" fill="#B8BDBF" fill-rule="evenodd"/></svg><svg width="30" height="30" viewBox="-5 -5 30 30" x="582" y="582"><title>circle-prompt</title><desc>owl-icon</desc><path d="M9.78 2a7.78 7.78 0 1 0 0 15.56A7.78 7.78 0 0 0 9.78 2zm2.565 4.196a2.505 2.505 0 0 0-1.002-.934c-.431-.229-.93-.344-1.494-.344-.606 0-1.137.137-1.592.41-.455.275-.8.62-1.039 1.04-.238.416-.355.829-.355 1.236 0 .196.074.378.224.548a.71.71 0 0 0 .551.254c.368 0 .62-.242.753-.726.14-.463.311-.814.513-1.05.202-.239.518-.357.945-.357a1.193 1.193 0 0 1 1.244 1.22c0 .176-.037.339-.113.488-.077.15-.17.286-.281.408-.111.122-.291.303-.54.542a9.755 9.755 0 0 0-.676.711 2.38 2.38 0 0 0-.403.693 2.61 2.61 0 0 0-.152.935c0 .286.069.502.207.649a.673.673 0 0 0 .51.217c.39 0 .62-.222.695-.666.043-.21.075-.358.096-.44a1.41 1.41 0 0 1 .09-.252c.04-.084.1-.175.178-.276.08-.1.187-.217.318-.35.479-.47.811-.805.995-1.004.185-.2.344-.436.48-.71.134-.274.2-.594.2-.956 0-.463-.117-.891-.352-1.286m-2.016 6.802c.166.183.25.411.25.68 0 .3-.086.535-.262.707a.845.845 0 0 1-.607.257.873.873 0 0 1-.622-.254c-.177-.169-.265-.406-.265-.71a.96.96 0 0 1 .257-.68.828.828 0 0 1 .63-.277.81.81 0 0 1 .62.277" fill="#B8BDBF" fill-rule="evenodd"/></svg><svg width="30" height="30" viewBox="-5 -5 30 30" x="612" y="612"><title>circle-restore</title><desc>owl-icon</desc><path d="M10 2.222a7.778 7.778 0 1 0 0 15.556 7.778 7.778 0 0 0 0-15.556zm0 2.7a4.445 4.445 0 0 0-4.444 4.445h1.777A2.667 2.667 0 1 1 10 12.033v-1.27l-2.608 2.136L10 15.078V13.81a4.445 4.445 0 0 0 0-8.889z" fill="#B8BDBF" fill-rule="evenodd"/></svg><svg width="30" height="30" viewBox="-5 -5 30 30" x="642" y="642"><title>circle-success</title><desc>owl-icon</desc><path d="M9.78 17.56C5.49 17.56 2 14.069 2 9.78 2 5.49 5.49 2 9.78 2s7.78 3.49 7.78 7.78c0 4.289-3.49 7.78-7.78 7.78zm0-14.798c-3.87 0-7.018 3.148-7.018 7.017a7.026 7.026 0 0 0 7.018 7.018 7.025 7.025 0 0 0 7.018-7.018A7.025 7.025 0 0 0 9.78 2.762zm-3.11 8a1.212 1.212 0 0 1 0-1.712 1.232 1.232 0 0 1 1.725-.012l.73.73 2.495-2.493c.458-.458 1.256-.457 1.712 0a1.21 1.21 0 0 1 .012 1.724l-3.488 3.487a1.032 1.032 0 0 1-1.462 0L6.67 10.762zm.55-1.185a.453.453 0 0 0-.011.646l1.724 1.724a.272.272 0 0 0 .384 0l3.488-3.487a.448.448 0 0 0 0-.634.452.452 0 0 0-.646-.012l-2.764 2.763a.381.381 0 0 1-.54 0l-1-1a.449.449 0 0 0-.634 0z" fill="#B8BDBF" fill-rule="evenodd"/></svg><svg width="30" height="30" viewBox="-5 -5 30 30" x="672" y="672"><title>clipboard</title><desc>owl-icon</desc><path d="M12.83 4.485c-.587-.144-.996-.613-.996-1.197v-.487c0-.995-.84-1.801-1.874-1.801h-.038c-1.035 0-1.873.806-1.873 1.801v.492c0 .58-.407 1.048-.99 1.195-.76.19-1.32.894-1.32 1.685v.022c0 .294.247.532.553.532h7.313a.543.543 0 0 0 .554-.532v-.022c0-.793-.564-1.5-1.329-1.688zm-.725 9.606c0 .452-.35.818-.785.818H6.995c-.433 0-.784-.366-.784-.818 0-.451.351-.818.784-.818h4.325c.434 0 .785.367.785.818zm1.684-4.909c0 .452-.299.818-.668.818H6.878c-.368 0-.667-.366-.667-.818 0-.452.299-.818.667-.818h6.243c.369 0 .668.366.668.818zm0 2.454c0 .452-.299.819-.668.819H6.878c-.368 0-.667-.367-.667-.819 0-.451.299-.818.667-.818h6.243c.369 0 .668.367.668.818zm-.353-9.818v.84c0 .406.356.735.795.735h1.527c.294 0 .532.22.532.492v13.05c0 .272-.238.492-.532.492H4.243c-.294 0-.532-.22-.532-.492V3.885c0-.272.238-.492.532-.492H5.77c.44 0 .796-.329.796-.735v-.84H3.223C2.547 1.818 2 2.324 2 2.948V17.87c0 .625.547 1.13 1.223 1.13h13.554c.676 0 1.223-.505 1.223-1.13V2.948c0-.623-.547-1.129-1.223-1.129h-3.341z" fill="#B8BDBF" fill-rule="evenodd"/></svg><svg width="34" height="34" viewBox="-5 -5 34 34" x="702" y="702"><title>clone</title><desc>owl-icon</desc><path d="M18.933 4.743H8.667C7.64 4.743 6.8 5.566 6.8 6.57v12.8c0 1.006.84 1.829 1.867 1.829h10.266c1.027 0 1.867-.823 1.867-1.829V6.57c0-1.005-.84-1.828-1.867-1.828zM8.2 6.114h11.2V19.83H8.2V6.114zM5.448 18.41C4.62 18.223 4 17.493 4 16.63V3.83C4 2.823 4.84 2 5.867 2h10.266c.883 0 1.628.608 1.82 1.418a1.892 1.892 0 0 0-.42-.047H5.4V18c0 .141.017.278.048.41z" fill="#B8BDBF" fill-rule="evenodd"/></svg><svg width="34" height="34" viewBox="-5 -5 34 34" x="736" y="736"><title>cpu</title><desc>owl-icon</desc><path d="M17.833 17c0 .46-.373.833-.833.833H7A.834.834 0 0 1 6.167 17V7c0-.46.373-.833.833-.833h10c.46 0 .833.374.833.833v10zM22 8.667V7h-2.5c0-1.378-1.122-2.5-2.5-2.5V2h-1.667v2.5h-2.5V2h-1.666v2.5h-2.5V2H7v2.5A2.503 2.503 0 0 0 4.5 7H2v1.667h2.5v2.5H2v1.666h2.5v2.5H2V17h2.5c0 1.378 1.122 2.5 2.5 2.5V22h1.667v-2.5h2.5V22h1.666v-2.5h2.5V22H17v-2.5c1.378 0 2.5-1.122 2.5-2.5H22v-1.667h-2.5v-2.5H22v-1.666h-2.5v-2.5H22z" fill="#B8BDBF" fill-rule="evenodd"/></svg><svg width="28" height="28" viewBox="-5 -5 28 28" x="770" y="770"><title>date</title><desc>owl-icon</desc><path d="M6.75 8.25h-1.5v1.5h1.5v-1.5zm3 0h-1.5v1.5h1.5v-1.5zm3 0h-1.5v1.5h1.5v-1.5zM14.25 3h-.75V1.5H12V3H6V1.5H4.5V3h-.75c-.832 0-1.492.675-1.492 1.5L2.25 15a1.5 1.5 0 0 0 1.5 1.5h10.5c.825 0 1.5-.675 1.5-1.5V4.5c0-.825-.675-1.5-1.5-1.5zm0 12H3.75V6.75h10.5V15z" fill="#B8BDBF" fill-rule="evenodd"/></svg><svg width="30" height="30" viewBox="-5 -5 30 30" x="798" y="798"><title>disable</title><desc>owl-icon</desc><path d="M15.41 8.014c-.065-.009-.178-.05-.178-.145V6.21c0-2.791-2.278-5.128-5.078-5.209L9.993 1c-2.89 0-5.24 2.25-5.24 5.018v1.848c0 .097-.113.138-.181.146C3.676 8.128 3 8.869 3 9.736v7.528C3 18.223 3.815 19 4.816 19h10.368C16.185 19 17 18.223 17 17.264V9.736c0-.859-.683-1.599-1.59-1.722zm-5.28-6.223c2.36.068 4.28 2.051 4.28 4.42V8.01h-1.52V6.105c0-1.532-1.235-2.841-2.753-2.917l-.156-.004c-1.604 0-2.91 1.25-2.91 2.786v2.04H5.577V6.018c0-2.332 1.981-4.229 4.416-4.229l.136.002zm-2.235 4.18c0-1.102.936-1.998 2.086-1.998l.113.003c1.087.054 1.972 1.01 1.972 2.13v1.7c0 .105-.09.19-.2.19H8.095c-.11 0-.2-.085-.2-.19V5.97zm8.282 11.293c0 .524-.445.95-.992.95H4.816c-.547 0-.992-.426-.992-.95V9.736c0-.47.364-.87.846-.938h10.632c.499.07.874.472.874.938v7.528z" fill="#B8BDBF" fill-rule="evenodd"/></svg><svg width="34" height="34" viewBox="-5 -5 34 34" x="828" y="828"><title>disk</title><desc>owl-icon</desc><path d="M18.667 19.364H5.333c-.919 0-1.666-.734-1.666-1.637 0-.13.015-.26.046-.384v-.002c.18-.736.847-1.25 1.62-1.25h13.334c.771 0 1.436.512 1.618 1.244l.002.008c.03.127.046.256.046.384 0 .903-.748 1.637-1.666 1.637zM6.668 5.264a.83.83 0 0 1 .812-.628h9.04c.387 0 .72.258.81.628l2.285 9.334a3.408 3.408 0 0 0-.948-.143H5.333c-.329 0-.646.055-.948.143l2.283-9.334zm15.24 11.697v-.001L18.951 4.88A2.483 2.483 0 0 0 16.52 3H7.48c-1.16 0-2.16.773-2.432 1.881L2.092 16.96a3.187 3.187 0 0 0-.092.767C2 19.532 3.495 21 5.333 21h13.334C20.505 21 22 19.532 22 17.727c0-.257-.03-.514-.092-.766zM5.333 18.546h3.334v-1.637H5.333v1.637z" fill="#B8BDBF" fill-rule="evenodd"/></svg><svg width="30" height="30" viewBox="-5 -5 30 30" x="862" y="862"><title>double-left</title><desc>owl-icon</desc><path d="M18 14.59L13.055 10 18 5.41 16.478 4 10 10l6.478 6L18 14.59zm-8 0L5.055 10 10 5.41 8.478 4 2 10l6.478 6L10 14.59z" fill="#B8BDBF" fill-rule="evenodd"/></svg><svg width="30" height="30" viewBox="-5 -5 30 30" x="892" y="892"><title>double-right</title><desc>owl-icon</desc><path d="M2 14.59L6.945 10 2 5.41 3.522 4 10 10l-6.478 6L2 14.59zm8 0L14.945 10 10 5.41 11.522 4 18 10l-6.478 6L10 14.59z" fill="#B8BDBF" fill-rule="evenodd"/></svg><svg width="38" height="38" viewBox="-5 -5 38 38" x="922" y="922"><title>eye</title><desc>owl-icon</desc><path d="M25.066 12.936C23.693 10.976 20.171 7 14.21 7c-5.938 0-9.488 3.986-10.87 5.942a1.88 1.88 0 0 0-.016 2.13C4.671 17.034 8.145 21 14.21 21c5.99 0 9.495-3.972 10.86-5.932a1.88 1.88 0 0 0-.004-2.132zm-10.865 5.87c-2.52 0-4.563-2.151-4.563-4.806 0-2.655 2.043-4.807 4.563-4.807 2.52 0 4.562 2.152 4.562 4.807 0 2.655-2.042 4.807-4.562 4.807zM16.664 14c0 1.433-1.103 2.595-2.463 2.595S11.738 15.433 11.738 14c0-1.433 1.103-2.594 2.463-2.594s2.463 1.161 2.463 2.594z" fill="#B8BDBF" fill-rule="evenodd"/></svg><svg width="34" height="34" viewBox="-5 -5 34 34" x="960" y="960"><title>eye-off</title><desc>owl-icon</desc><path d="M12.005 6.79c2.761 0 5.002 2.122 5.002 4.736 0 .616-.13 1.194-.36 1.734l2.921 2.766a11.241 11.241 0 0 0 3.432-4.5c-1.73-4.159-6.003-7.105-11.005-7.105-1.4 0-2.741.237-3.982.663l2.161 2.047a5.093 5.093 0 0 1 1.831-.342zM2 4.202l2.281 2.16.46.436A11.26 11.26 0 0 0 1 11.526c1.73 4.16 6.003 7.106 11.005 7.106 1.55 0 3.031-.285 4.382-.796l.42.398L19.74 21l1.27-1.203L3.271 3l-1.27 1.203zm5.533 5.24l1.55 1.468a2.53 2.53 0 0 0-.08.615c0 1.573 1.341 2.842 3.002 2.842.22 0 .44-.028.65-.075l1.551 1.468c-.67.313-1.41.502-2.201.502-2.761 0-5.002-2.122-5.002-4.737 0-.748.2-1.45.53-2.084zm4.312-.74l3.151 2.984.02-.151c0-1.573-1.34-2.842-3.001-2.842l-.17.01z" fill="#B8BDBF" fill-rule="evenodd"/></svg><svg width="34" height="34" viewBox="-5 -5 34 34" x="994" y="994"><title>filter</title><desc>owl-icon</desc><path d="M19.589 4.991a1.26 1.26 0 0 1-.925.394H5.303a1.265 1.265 0 0 1-.914-.42 1.389 1.389 0 0 1-.357-.863H19.97a1.387 1.387 0 0 1-.381.89zm.946-1.498A1.7 1.7 0 0 0 19.357 3H4.686a1.733 1.733 0 0 0-.642.117 1.681 1.681 0 0 0-.548.346A1.57 1.57 0 0 0 3 4.6a1.575 1.575 0 0 0 .465 1.146c.303.306.738.489 1.179.493h.46l5.337 7.791V21h1.435l1.683-2.4v-4.57l5.338-7.79h.416a1.695 1.695 0 0 0 1.19-.463c.315-.295.5-.715.497-1.137a1.572 1.572 0 0 0-.465-1.147z" fill="#B8BDBF" fill-rule="evenodd"/></svg><svg width="30" height="30" viewBox="-5 -5 30 30" x="1028" y="1028"><title>fn</title><desc>owl-icon</desc><path d="M15 4H5v1.5l5.417 4.5L5 14.5V16h10v-2.25H9.167L13.333 10 9.167 6.25H15z" fill="#B8BDBF" fill-rule="evenodd"/></svg><svg width="34" height="34" viewBox="-5 -5 34 34" x="1058" y="1058"><title>gear</title><desc>owl-icon</desc><path d="M18.877 12.882c.037-.288.064-.576.064-.882 0-.306-.027-.594-.064-.882l1.952-1.485a.446.446 0 0 0 .11-.576l-1.85-3.114a.471.471 0 0 0-.564-.198l-2.304.9a6.83 6.83 0 0 0-1.563-.882l-.352-2.385A.447.447 0 0 0 13.853 3h-3.701a.447.447 0 0 0-.454.378l-.351 2.385a7.16 7.16 0 0 0-1.564.882l-2.304-.9a.457.457 0 0 0-.564.198l-1.85 3.114a.436.436 0 0 0 .11.576l1.952 1.485a6.946 6.946 0 0 0-.064.882c0 .297.027.594.064.882l-1.952 1.485a.446.446 0 0 0-.11.576l1.85 3.114c.11.198.36.27.564.198l2.304-.9c.481.36 1 .657 1.564.882l.351 2.385a.447.447 0 0 0 .454.378h3.7a.447.447 0 0 0 .454-.378l.352-2.385a7.16 7.16 0 0 0 1.563-.882l2.304.9c.213.081.453 0 .564-.198l1.85-3.114a.446.446 0 0 0-.11-.576l-1.952-1.485zm-6.875 2.268c-1.786 0-3.238-1.413-3.238-3.15 0-1.737 1.452-3.15 3.238-3.15S15.24 10.263 15.24 12c0 1.737-1.452 3.15-3.238 3.15z" fill="#B8BDBF" fill-rule="evenodd"/></svg><svg width="34" height="34" viewBox="-5 -5 34 34" x="1092" y="1092"><title>graph</title><desc>owl-icon</desc><path d="M19 3H5c-1.1 0-2 .9-2 2v14c0 1.1.9 2 2 2h14c1.1 0 2-.9 2-2V5c0-1.1-.9-2-2-2zM9 17H7v-7h2v7zm4 0h-2V7h2v10zm4 0h-2v-4h2v4z" fill="#B8BDBF" fill-rule="evenodd"/></svg><svg width="30" height="30" viewBox="-5 -5 30 30" x="1126" y="1126"><title>grid-1</title><desc>owl-icon</desc><path d="M1 1h18v18H1z" fill="#B8BDBF" fill-rule="evenodd"/></svg><svg width="30" height="30" viewBox="-5 -5 30 30" x="1156" y="1156"><title>grid-16</title><desc>owl-icon</desc><path d="M1 10.412h3.882v3.882H1v-3.882zm4.706 0h3.882v3.882H5.706v-3.882zm4.706 0h3.882v3.882h-3.882v-3.882zm4.706 0H19v3.882h-3.882v-3.882zM1 15.118h3.882V19H1v-3.882zm4.706 0h3.882V19H5.706v-3.882zm4.706 0h3.882V19h-3.882v-3.882zm4.706 0H19V19h-3.882v-3.882zM1 5.706h3.882v3.882H1V5.706zm4.706 0h3.882v3.882H5.706V5.706zm4.706 0h3.882v3.882h-3.882V5.706zm4.706 0H19v3.882h-3.882V5.706zM1 1h3.882v3.882H1V1zm4.706 0h3.882v3.882H5.706V1zm4.706 0h3.882v3.882h-3.882V1zm4.706 0H19v3.882h-3.882V1z" fill="#B8BDBF" fill-rule="evenodd"/></svg><svg width="30" height="30" viewBox="-5 -5 30 30" x="1186" y="1186"><title>grid-4</title><desc>owl-icon</desc><path d="M1 1h8v7.997H1V1zm0 10.003h8V19H1v-7.997zM11 1h8v7.997h-8V1zm0 10.003h8V19h-8v-7.997z" fill="#B8BDBF" fill-rule="evenodd"/></svg><svg width="30" height="30" viewBox="-5 -5 30 30" x="1216" y="1216"><title>grid-9</title><desc>owl-icon</desc><path d="M1 13.81h5.294V19H1v-5.19zm0-6.405h5.294v5.19H1v-5.19zM1 1h5.294v5.19H1V1zm6.353 12.81h5.294V19H7.353v-5.19zm0-6.405h5.294v5.19H7.353v-5.19zm0-6.405h5.294v5.19H7.353V1zm6.353 12.81H19V19h-5.294v-5.19zm0-6.405H19v5.19h-5.294v-5.19zm0-6.405H19v5.19h-5.294V1z" fill="#B8BDBF" fill-rule="evenodd"/></svg><svg width="34" height="34" viewBox="-5 -5 34 34" x="1246" y="1246"><title>health</title><desc>owl-icon</desc><path d="M19 3H5c-1.1 0-1.99.9-1.99 2L3 19c0 1.1.9 2 2 2h14c1.1 0 2-.9 2-2V5c0-1.1-.9-2-2-2zm-1 11h-4v4h-4v-4H6v-4h4V6h4v4h4v4z" fill="#B8BDBF" fill-rule="evenodd"/></svg><svg width="38" height="38" viewBox="-5 -5 38 38" x="1280" y="1280"><title>host</title><desc>owl-icon</desc><path d="M2 24h24v-5H2v5zm2.4-3.75h2.4v2.5H4.4v-2.5zM2 4v5h24V4H2zm4.8 3.75H4.4v-2.5h2.4v2.5zM2 16.5h24v-5H2v5zm2.4-3.75h2.4v2.5H4.4v-2.5z" fill="#B8BDBF" fill-rule="evenodd"/></svg><svg width="30" height="30" viewBox="-5 -5 30 30" x="1318" y="1318"><title>legend</title><desc>owl-icon</desc><path d="M4.135 8.855C3.507 8.855 3 9.397 3 10.069c0 .671.507 1.214 1.135 1.214s1.135-.543 1.135-1.214c0-.672-.507-1.214-1.135-1.214zm0-4.855C3.507 4 3 4.542 3 5.214c0 .671.507 1.214 1.135 1.214S5.27 5.885 5.27 5.214C5.27 4.542 4.763 4 4.135 4zm0 9.848c-.56 0-1.006.485-1.006 1.076 0 .59.454 1.076 1.006 1.076.553 0 1.007-.486 1.007-1.076 0-.59-.447-1.076-1.007-1.076zm2.27 1.885H17v-1.618H6.405v1.618zm0-4.855H17V9.26H6.405v1.618zm0-6.473v1.618H17V4.405H6.405z" fill="#B8BDBF" fill-rule="evenodd"/></svg><svg width="34" height="34" viewBox="-5 -5 34 34" x="1348" y="1348"><title>linechart</title><desc>owl-icon</desc><path d="M22 18.933V20H2V4h1v14.933h19zM21 5.067V10.4c0-.133-.065-.027 0 0-.326.095-.444.068-1 0l-1-1.067-6 6.4c-.176.227-.253.263 0 0-.426.263-.503.227-1 0L10 13.6l-4 4.267-2-2.134 6-6.4c-.07.062.007.026 0 0 .181.026.258.062 0 0l3 2.134L17 7.2l-1-1.067c-.008-.587-.034-.715 0-1.066.08.07.179 0 0 0h5c-.227 0-.15.032 0 0-.03.162 0 .245 0 0z" fill="#B8BDBF" fill-rule="evenodd"/></svg><svg width="34" height="34" viewBox="-5 -5 34 34" x="1382" y="1382"><title>location</title><desc>owl-icon</desc><path d="M12 2C8.134 2 5 5.145 5 9.026c-.002 1.68.246 2.843 1.196 4.37C7.146 14.92 12 22 12 22s4.854-7.08 5.804-8.605c.95-1.526 1.198-2.69 1.196-4.369C19 5.146 15.866 2 12 2zm.016 10.636h-.032c-1.926 0-3.487-1.473-3.484-3.504.003-2.032 1.567-3.496 3.495-3.496h.011c1.927 0 3.491 1.464 3.494 3.496.003 2.03-1.558 3.504-3.484 3.504z" fill="#B8BDBF" fill-rule="evenodd"/></svg><svg width="34" height="34" viewBox="-5 -5 34 34" x="1416" y="1416"><title>memory</title><desc>owl-icon</desc><path d="M14.17 2.597L2.597 14.17a2.052 2.052 0 0 0 0 2.893l4.34 4.34a2.052 2.052 0 0 0 2.893 0l2.352-2.352-1.084-1.085-2.352 2.352a.517.517 0 0 1-.724 0l-4.34-4.34a.517.517 0 0 1 0-.724L15.254 3.681a.52.52 0 0 1 .724 0l4.34 4.34a.517.517 0 0 1 0 .723l-2.358 2.36 1.084 1.084 2.36-2.358a2.052 2.052 0 0 0 0-2.893l-4.34-4.34a2.052 2.052 0 0 0-2.894 0zm2.473 9.823l-4.23 4.23 1.086 1.084 4.23-4.228-1.086-1.086zm1.252-4.27l-1.414 1.414-2.604-2.602 1.415-1.416 2.603 2.604zm-2.777 2.776l-1.414 1.415L11.1 9.739l1.415-1.416 2.603 2.603zm-2.777 2.777l-1.414 1.415-2.603-2.603L9.738 11.1l2.603 2.603zM9.565 16.48L8.15 17.894l-2.603-2.602 1.414-1.415 2.604 2.603z" fill="#B8BDBF" fill-rule="evenodd"/></svg><svg width="34" height="34" viewBox="-5 -5 34 34" x="1450" y="1450"><title>more</title><desc>owl-icon</desc><path d="M12 8c1.1 0 2-.9 2-2s-.9-2-2-2-2 .9-2 2 .9 2 2 2zm0 2c-1.1 0-2 .9-2 2s.9 2 2 2 2-.9 2-2-.9-2-2-2zm0 6c-1.1 0-2 .9-2 2s.9 2 2 2 2-.9 2-2-.9-2-2-2z" fill="#B8BDBF" fill-rule="evenodd"/></svg><svg width="34" height="34" viewBox="-5 -5 34 34" x="1484" y="1484"><title>net</title><desc>owl-icon</desc><path d="M19.65 19.2c0 .244-.206.45-.45.45H4.8a.456.456 0 0 1-.45-.45V4.8c0-.244.206-.45.45-.45h14.4c.244 0 .45.206.45.45v14.4zM19.2 3H4.8C3.81 3 3 3.81 3 4.8v14.4c0 .991.81 1.8 1.8 1.8h14.4c.991 0 1.8-.809 1.8-1.8V4.8c0-.99-.809-1.8-1.8-1.8zm-2.25 10.391h-2.1v2.66H9.151v-2.66H7.05v-5.44h1.221v3.45h1.5V7.95h1.479v3.45h1.5V7.95h1.479v3.45h1.5V7.95h1.221v5.44zm1.267-6.239a.916.916 0 0 0-.203-.259c-.009-.008-.013-.02-.023-.028a1.133 1.133 0 0 0-.74-.265H6.75c-.577 0-1.05.406-1.05.904v6.332c0 .498.473.905 1.05.905h1.051v1.754c0 .25.118.476.308.64a1.1 1.1 0 0 0 .333.194c.126.045.264.071.408.071h6.3c.329 0 .612-.14.805-.347.145-.155.245-.343.245-.558v-1.754h1.051c.288 0 .55-.102.74-.266a.846.846 0 0 0 .309-.639V7.504a.796.796 0 0 0-.083-.352z" fill="#B8BDBF" fill-rule="evenodd"/></svg><svg width="34" height="34" viewBox="-5 -5 34 34" x="1518" y="1518"><title>note</title><desc>owl-icon</desc><path d="M20 2H4c-1.1 0-1.99.9-1.99 2L2 22l4-4h14c1.1 0 2-.9 2-2V4c0-1.1-.9-2-2-2zM8 14H6v-2h2v2zm0-3H6V9h2v2zm0-3H6V6h2v2zm7 6h-5v-2h5v2zm3-3h-8V9h8v2zm0-3h-8V6h8v2z" fill="#B8BDBF" fill-rule="evenodd"/></svg><svg width="30" height="30" viewBox="-5 -5 30 30" x="1552" y="1552"><title>open-new</title><desc>owl-icon</desc><path d="M17 17H3V3h7V1H3a2 2 0 0 0-2 2v14a2 2 0 0 0 2 2h14c1.1 0 2-.9 2-2v-7h-2v7zM12 1v2h3.59l-9.83 9.83 1.41 1.41L17 4.41V8h2V1h-7z" fill="#B8BDBF" fill-rule="evenodd"/></svg><svg width="34" height="34" viewBox="-5 -5 34 34" x="1582" y="1582"><title>other</title><desc>owl-icon</desc><path d="M15.668 14.09c-.449 0-.814.39-.814.87s.365.87.814.87c.448 0 .813-.39.813-.87s-.365-.87-.813-.87m4.427 5.189h-3.027a1.965 1.965 0 0 1-1.967-1.96v-.287c-.88-.253-1.5-1.094-1.5-2.072 0-1.185.925-2.149 2.063-2.149 1.13 0 2.05.964 2.05 2.15 0 .916-.555 1.723-1.367 2.023v.335c0 .37.323.672.72.672h3.028c.342 0 .62.29.62.644a.633.633 0 0 1-.62.644zm-1.147-7.031c-.898 0-1.694-.625-1.96-1.51h-.912c-1.08 0-1.99-.9-1.99-1.965V5c0-.42-.246-.714-.6-.714h-3.432a.632.632 0 0 1-.62-.643c0-.355.278-.644.62-.644h3.432c1.036 0 1.847.879 1.847 2v3.773c0 .368.34.677.743.677h.911c.261-.895 1.041-1.504 1.96-1.504 1.133 0 2.053.965 2.053 2.151s-.92 2.15-2.052 2.15zm0-3.022c-.449 0-.814.39-.814.87s.365.87.814.87c.447 0 .812-.39.812-.87s-.365-.87-.812-.87zM12.05 21.001a.633.633 0 0 1-.624-.64V8.183c0-.395-.283-.692-.657-.692H6.996c-.28.872-1.054 1.464-1.944 1.464C3.92 8.955 3 7.995 3 6.815c0-1.19.92-2.158 2.052-2.158.927 0 1.728.64 1.974 1.546h3.743c1.068 0 1.905.87 1.905 1.98V20.36c0 .353-.28.64-.624.64zM5.052 5.953c-.447 0-.812.39-.812.87s.365.87.812.87c.449 0 .814-.39.814-.87s-.365-.87-.814-.87zM6.884 19.28H3.862a.633.633 0 0 1-.62-.644c0-.355.279-.644.62-.644h3.022c.368 0 .616-.27.616-.672v-3.502c-.833-.29-1.399-1.1-1.399-2.039 0-1.185.923-2.15 2.058-2.15 1.13 0 2.051.965 2.051 2.15 0 .932-.617 1.782-1.464 2.057v3.484c0 1.117-.8 1.96-1.862 1.96zm1.275-8.37c-.448 0-.813.39-.813.87 0 .479.365.869.813.869.448 0 .813-.39.813-.87s-.365-.87-.813-.87z" fill="#B8BDBF" fill-rule="evenodd"/></svg><svg width="30" height="30" viewBox="-5 -5 30 30" x="1616" y="1616"><title>pen</title><desc>owl-icon</desc><path d="M3 14.084V17h2.916l8.601-8.601-2.916-2.916L3 14.083zm13.773-7.94a.774.774 0 0 0 0-1.097l-1.82-1.82a.774.774 0 0 0-1.097 0l-1.423 1.424 2.916 2.916 1.424-1.423z" fill="#B8BDBF" fill-rule="evenodd"/></svg><svg width="34" height="34" viewBox="-5 -5 34 34" x="1646" y="1646"><title>search</title><desc>owl-icon</desc><path d="M16.007 13.566h-.759l-.269-.26a6.216 6.216 0 0 0 1.508-4.062 6.243 6.243 0 1 0-6.243 6.243 6.216 6.216 0 0 0 4.063-1.508l.259.269v.759l4.803 4.793 1.431-1.431-4.793-4.803zm-5.763 0A4.317 4.317 0 0 1 5.92 9.244a4.317 4.317 0 0 1 4.323-4.323 4.317 4.317 0 0 1 4.322 4.323 4.317 4.317 0 0 1-4.322 4.322z" fill="#B8BDBF" fill-rule="evenodd"/></svg><svg width="28" height="28" viewBox="-5 -5 28 28" x="1680" y="1680"><title>sort</title><desc>owl-icon</desc><path d="M9 4l3 4H6l3-4zm-3 6h6l-3 4-3-4z" fill="#B8BDBF" fill-rule="evenodd"/></svg><svg width="34" height="34" viewBox="-5 -5 34 34" x="1708" y="1708"><title>sunny</title><desc>owl-icon</desc><path d="M6.76 5.31l-1.8-1.8-1.41 1.418 1.79 1.798L6.76 5.31zM4 10.995H1v2.01h3v-2.01zM13 1h-2v2.963h2V1zm7.45 3.928L19.04 3.51l-1.79 1.8 1.41 1.416 1.79-1.798zM17.24 18.69l1.79 1.809 1.41-1.417-1.8-1.798-1.4 1.406zM20 10.995v2.01h3v-2.01h-3zM12 6c-3.31 0-6 2.69-6 6s2.69 6 6 6 6-2.69 6-6-2.69-6-6-6zm-1 17h2v-3h-2v3zm-7.45-3.942l1.41 1.406 1.79-1.794-1.41-1.406-1.79 1.794z" fill="#B8BDBF" fill-rule="evenodd"/></svg><svg width="34" height="34" viewBox="-5 -5 34 34" x="1742" y="1742"><title>sync</title><desc>owl-icon</desc><path d="M10.837 4.166c.342-.028.613-.291.613-.628V2.337c0-.278.323-.435.55-.269l3.745 2.773c.34.25.34.75.001 1L12 8.624c-.226.168-.55.01-.55-.267V7.248a.647.647 0 0 0-.744-.63c-2.739.408-4.747 2.997-4.12 5.906.125.583.365 1.13.694 1.617.36.534.216 1.25-.316 1.62l-.021.014c-.545.38-1.321.273-1.692-.272A7.167 7.167 0 0 1 4 11.456c0-3.834 3.008-6.98 6.837-7.29zm2.326 15.668c-.342.028-.613.291-.613.628v1.201c0 .278-.323.435-.55.269l-3.745-2.773a.62.62 0 0 1-.001-1L12 15.376c.226-.168.55-.01.55.267v1.108c0 .387.353.687.744.63 2.739-.408 4.747-2.997 4.12-5.906a4.634 4.634 0 0 0-.694-1.617 1.172 1.172 0 0 1 .316-1.62l.021-.014c.545-.38 1.321-.273 1.692.272A7.167 7.167 0 0 1 20 12.544c0 3.834-3.008 6.98-6.837 7.29z" fill="#B8BDBF" fill-rule="evenodd"/></svg><svg width="34" height="34" viewBox="-5 -5 34 34" x="1776" y="1776"><title>tick-circle</title><desc>owl-icon</desc><path d="M12.336 3A9.336 9.336 0 0 0 3 12.336a9.336 9.336 0 0 0 9.336 9.336 9.336 9.336 0 1 0 0-18.672zm-.534 12.251a.844.844 0 0 1-1.17 0l-2.188-2.127a1.004 1.004 0 0 1 0-1.45l.015-.014c.411-.4 1.078-.4 1.49 0l1.268 1.235 3.507-3.41c.412-.4 1.079-.4 1.49 0l.015.015c.41.4.41 1.047 0 1.447l-4.427 4.304z" fill="#B8BDBF" fill-rule="evenodd"/></svg><svg width="28" height="28" viewBox="-5 -5 28 28" x="1810" y="1810"><title>time</title><desc>owl-icon</desc><path d="M8.992 1.5C4.852 1.5 1.5 4.86 1.5 9c0 4.14 3.352 7.5 7.492 7.5 4.148 0 7.508-3.36 7.508-7.5 0-4.14-3.36-7.5-7.508-7.5zM9 15c-3.315 0-6-2.685-6-6s2.685-6 6-6 6 2.685 6 6-2.685 6-6 6zm.375-9.75H8.25v4.5l3.938 2.362.562-.922-3.375-2.002V5.25z" fill="#B8BDBF" fill-rule="evenodd"/></svg><svg width="34" height="34" viewBox="-5 -5 34 34" x="1838" y="1838"><title>top10</title><desc>owl-icon</desc><path d="M15.708 16.636a4.15 4.15 0 0 1-.191.888 1.37 1.37 0 0 1-.361.576.81.81 0 0 1-.563.204.791.791 0 0 1-.56-.204 1.45 1.45 0 0 1-.358-.576 3.784 3.784 0 0 1-.198-.888 9.908 9.908 0 0 1-.061-1.14c0-.416.02-.794.06-1.134.04-.34.106-.634.199-.882a1.45 1.45 0 0 1 .359-.576.796.796 0 0 1 .559-.205c.223 0 .41.069.563.205.153.136.272.328.36.576.088.248.152.542.192.882.04.34.06.718.06 1.134 0 .416-.02.796-.06 1.14zm1.086-4.351c-.532-.747-1.266-1.121-2.201-1.121a2.65 2.65 0 0 0-1.237.287 2.714 2.714 0 0 0-.948.84c-.263.369-.466.82-.606 1.357-.14.536-.21 1.152-.21 1.848 0 1.4.266 2.474.799 3.222.53.748 1.265 1.122 2.202 1.122.935 0 1.669-.374 2.2-1.122.533-.748.8-1.822.8-3.222 0-1.392-.267-2.462-.8-3.211zm-9.846 2.179c.28-.097.568-.21.864-.342.296-.132.564-.278.804-.438v5.988h1.788v-8.316H9.156a4.737 4.737 0 0 1-.594.522 9.027 9.027 0 0 1-1.428.876c-.252.124-.494.234-.726.33l.54 1.38zm9.756-7.885c.147.027.274.07.382.13a.663.663 0 0 1 .252.252c.06.108.09.24.09.4 0 .33-.114.555-.342.674-.23.12-.556.179-.98.179h-.428V6.562c.145-.014.33-.021.554-.021.168 0 .325.013.472.038zm-1.225-.776c-.25.017-.477.048-.682.095v4.78h.88V8.97h.443c.354 0 .67-.03.945-.091.276-.06.509-.155.7-.283a1.27 1.27 0 0 0 .438-.497c.099-.203.15-.447.15-.732 0-.545-.187-.947-.563-1.204-.376-.256-.916-.384-1.621-.384-.21 0-.44.007-.69.024zm-4.987 1.726c.065-.215.16-.4.284-.554a1.28 1.28 0 0 1 .45-.357 1.4 1.4 0 0 1 .603-.126 1.302 1.302 0 0 1 1.047.48c.123.15.217.336.283.553.065.216.098.459.098.724 0 .266-.033.508-.098.725-.066.217-.16.4-.283.553a1.3 1.3 0 0 1-.452.353 1.373 1.373 0 0 1-.595.126c-.224 0-.424-.042-.602-.126a1.287 1.287 0 0 1-.451-.353 1.58 1.58 0 0 1-.284-.553 2.523 2.523 0 0 1-.098-.725c0-.265.033-.506.098-.72zm3.5-.375a2.331 2.331 0 0 0-.508-.794 2.064 2.064 0 0 0-.745-.484 2.544 2.544 0 0 0-.903-.161 2.57 2.57 0 0 0-.903.16 2.14 2.14 0 0 0-.753.485 2.3 2.3 0 0 0-.514.794c-.126.315-.19.68-.19 1.095 0 .415.064.782.19 1.099.126.317.295.583.508.795.212.212.46.372.749.479.287.108.59.16.913.16.322 0 .625-.052.91-.16.284-.107.533-.267.745-.48.213-.211.38-.477.504-.794.124-.317.185-.684.185-1.1 0-.414-.062-.78-.188-1.094zM5.648 5.827v.763h1.49v4.088h.89V6.59h1.49v-.763h-3.87zm6.966-3.197l.56-.424a1.017 1.017 0 0 1 1.49.296l.356.606c.23.393.693.584 1.133.47l.68-.177a1.016 1.016 0 0 1 1.263.844l.097.696c.063.45.417.804.867.867l.696.097c.603.083.997.674.844 1.263l-.177.68c-.114.44.077.903.469 1.133l.606.356c.525.308.664 1.004.297 1.49l-.424.56a1.017 1.017 0 0 0 0 1.226l.424.56a1.017 1.017 0 0 1-.297 1.49l-.606.357a1.02 1.02 0 0 0-.47 1.133l.178.68a1.017 1.017 0 0 1-.844 1.263l-.696.097c-.45.062-.804.416-.867.867l-.097.696a1.017 1.017 0 0 1-1.263.844l-.68-.177a1.016 1.016 0 0 0-1.133.469l-.356.606a1.016 1.016 0 0 1-1.49.296l-.56-.423a1.019 1.019 0 0 0-1.227 0l-.56.423a1.016 1.016 0 0 1-1.49-.296l-.356-.606a1.016 1.016 0 0 0-1.133-.47l-.68.178a1.017 1.017 0 0 1-1.263-.844l-.097-.696a1.016 1.016 0 0 0-.867-.867l-.696-.097a1.017 1.017 0 0 1-.844-1.263l.177-.68a1.018 1.018 0 0 0-.47-1.133l-.605-.356a1.017 1.017 0 0 1-.297-1.49l.424-.561a1.017 1.017 0 0 0 0-1.226l-.424-.56a1.016 1.016 0 0 1 .297-1.49l.606-.356c.392-.23.583-.693.469-1.133l-.177-.68a1.016 1.016 0 0 1 .844-1.263l.696-.097c.45-.063.804-.417.867-.867l.097-.696A1.016 1.016 0 0 1 7.168 3.4l.68.177c.44.114.903-.077 1.133-.47l.356-.606a1.017 1.017 0 0 1 1.49-.296l.56.424c.363.274.864.274 1.227 0z" fill="#B8BDBF" fill-rule="evenodd"/></svg><svg width="30" height="30" viewBox="-5 -5 30 30" x="1872" y="1872"><title>triangle-down</title><desc>owl-icon</desc><path d="M6.667 7.778h6.666L10 12.222z" fill="#B8BDBF" fill-rule="evenodd"/></svg><svg width="28" height="28" viewBox="-5 -5 28 28" x="1902" y="1902"><title>triangle-up</title><desc>owl-icon</desc><path d="M12 11H6l3-4z" fill="#B8BDBF" fill-rule="evenodd"/></svg><svg width="38" height="38" viewBox="-5 -5 38 38" x="1930" y="1930"><title>user-group</title><desc>owl-icon</desc><path d="M18.727 13.26c1.962 0 3.534-1.621 3.534-3.63 0-2.008-1.572-3.63-3.534-3.63-1.962 0-3.545 1.622-3.545 3.63 0 2.009 1.583 3.63 3.545 3.63zm-9.454 0c1.962 0 3.533-1.621 3.533-3.63 0-2.008-1.571-3.63-3.533-3.63S5.727 7.622 5.727 9.63c0 2.009 1.584 3.63 3.546 3.63zm0 1.48C6.519 14.74 1 16.154 1 18.974V22h16.545v-3.025c0-2.82-5.519-4.236-8.272-4.236zm9.454 0c-.342 0-.732.024-1.146.06 1.37 1.016 2.328 2.384 2.328 4.175V22H27v-3.025c0-2.82-5.52-4.236-8.273-4.236z" fill="#B8BDBF" fill-rule="evenodd"/></svg><svg width="30" height="30" viewBox="-5 -5 30 30" x="1968" y="1968"><title>x</title><desc>owl-icon</desc><path d="M15.556 5.563l-1.12-1.119L10 8.881 5.563 4.444l-1.119 1.12L8.881 10l-4.437 4.437 1.12 1.119L10 11.119l4.437 4.437 1.119-1.12L11.119 10z" fill="#B8BDBF" fill-rule="evenodd"/></svg><svg width="30" height="30" viewBox="-5 -5 30 30" x="1998" y="1998"><title>zoom-in</title><desc>owl-icon</desc><path d="M13.006 11.805h-.633l-.224-.216a5.18 5.18 0 0 0 1.257-3.386 5.203 5.203 0 1 0-5.203 5.203 5.18 5.18 0 0 0 3.386-1.257l.216.224v.633L15.807 17 17 15.807l-3.994-4.002zm-4.803 0a3.597 3.597 0 0 1-3.602-3.602 3.597 3.597 0 0 1 3.602-3.602 3.597 3.597 0 0 1 3.602 3.602 3.597 3.597 0 0 1-3.602 3.602zm-.686-4.138H5.333v1.2h2.184v1.716h1.5V8.867h2.15v-1.2h-2.15v-1.75h-1.5v1.75z" fill="#B8BDBF" fill-rule="evenodd"/></svg><svg width="30" height="30" viewBox="-5 -5 30 30" x="2028" y="2028"><title>zoom-out</title><desc>owl-icon</desc><path d="M13.006 11.805h-.633l-.224-.216a5.18 5.18 0 0 0 1.257-3.386 5.203 5.203 0 1 0-5.203 5.203 5.18 5.18 0 0 0 3.386-1.257l.216.224v.633L15.807 17 17 15.807l-3.994-4.002zm-4.803 0a3.597 3.597 0 0 1-3.602-3.602 3.597 3.597 0 0 1 3.602-3.602 3.597 3.597 0 0 1 3.602 3.602 3.597 3.597 0 0 1-3.602 3.602zM5.917 7.667h4.666v1.2H5.917v-1.2z" fill="#B8BDBF" fill-rule="evenodd"/></svg></svg>